<svg xmlns="http://www.w3.org/2000/svg" width="52.891" height="52.891" viewBox="0 0 52.891 52.891"><defs><style>.a{fill:#705ebc;}</style></defs><g transform="translate(-248.202 -9.023)"><g transform="translate(248.202 9.023)"><path class="a" d="M1092.249,14.029a28.1,28.1,0,0,1,20.673,8.579,28.094,28.094,0,0,1,8.534,20.65,28.045,28.045,0,0,1-6.229,18.071,30.7,30.7,0,0,0,2.6-2.327,28.187,28.187,0,0,0,8.579-20.673,28.182,28.182,0,0,0-8.534-20.65,29.2,29.2,0,0,0-41.345,0,30.69,30.69,0,0,0-2.327,2.6A27.959,27.959,0,0,1,1092.249,14.029Z" transform="translate(-1073.516 -9.1)"/><path class="a" d="M1085.858,59.993a23.566,23.566,0,0,1,23.57,23.57,22.61,22.61,0,0,1-5.02,14.558,26.818,26.818,0,0,0,2.1-1.871,23.577,23.577,0,0,0,.023-33.336,23.639,23.639,0,0,0-35.23,2.1A22.484,22.484,0,0,1,1085.858,59.993Z" transform="translate(-1071.277 -45.299)"/><path class="a" d="M1081.9,108.143a17.324,17.324,0,0,1,13.622,28.02c.525-.434,1.05-.89,1.552-1.392a17.312,17.312,0,1,0-24.483-24.483,17.836,17.836,0,0,0-1.392,1.552A16.534,16.534,0,0,1,1081.9,108.143Z" transform="translate(-1071.2 -83.272)"/><path class="a" d="M1092.367,164.261a9.661,9.661,0,1,0-2.852,6.777A9.146,9.146,0,0,0,1092.367,164.261Z" transform="translate(-1072.744 -121.478)"/></g></g></svg>