<svg id="Layer_1" data-name="Layer 1" xmlns="http://www.w3.org/2000/svg" viewBox="0 0 240.33 49.55"><defs><style>.cls-1{fill:#1e1e1c;}</style></defs><path class="cls-1" d="M28.64,9.83V36.52H22v-3.6c-1.83,2.86-5.61,4.17-8.86,4.17C6.12,37.09,0,31.66,0,23.15S6.06,9.26,13.09,9.26c3.37,0,7.09,1.31,8.92,4.11V9.83ZM21.89,23.09a7.66,7.66,0,0,0-7.72-7.66,7.44,7.44,0,0,0-7.48,7.66,7.54,7.54,0,0,0,7.48,7.77A7.62,7.62,0,0,0,21.89,23.09Z"/><path class="cls-1" d="M62.13,21.55v15H55.5V22.18c0-4.23-2.58-6.4-5.55-6.4s-6.8,1.65-6.8,6.8V36.52H36.52V9.83h6.63v4.23c1.37-3.31,5.54-4.8,8.29-4.8C58.3,9.26,62.13,13.77,62.13,21.55Z"/><path class="cls-1" d="M96.7,9.83V36.52H90.07v-3.6c-1.83,2.86-5.6,4.17-8.86,4.17-7,0-13.14-5.43-13.14-13.94S74.13,9.26,81.16,9.26c3.37,0,7.08,1.31,8.91,4.11V9.83ZM90,23.09a7.66,7.66,0,0,0-7.72-7.66,7.45,7.45,0,0,0-7.49,7.66,7.61,7.61,0,1,0,15.21,0Z"/><path class="cls-1" d="M119.28,15.15h-5.66V36.52H107V15.15h-4.8V9.83H107V0h6.63V9.83h5.66Z"/><path class="cls-1" d="M122.19,23.09c0-8.46,6.57-13.83,14.18-13.83s14.23,5.37,14.23,13.83-6.63,14-14.23,14S122.19,31.55,122.19,23.09Zm21.72,0a7.52,7.52,0,1,0-15,0,7.52,7.52,0,1,0,15,0Z"/><path class="cls-1" d="M199.24,21.55v15h-6.58V22.06c0-4.28-2.23-6.4-5.31-6.4-3.83,0-6.23,2.86-5.95,7.66l-.05-.23V36.52h-6.63V22.06c0-4.28-2.23-6.4-5.09-6.4-3.09,0-6.17,1.72-6.17,6.8V36.52h-6.63V9.83h6.63V14.4c1-3.37,4.62-5.14,7.94-5.14A9,9,0,0,1,180,14.52a9.79,9.79,0,0,1,9-5.26C195.69,9.26,199.24,13.77,199.24,21.55Z"/><path class="cls-1" d="M231,9.83,214.44,49.55h-7l6-14.86L202.83,9.83h7.26L217,26.75l6.86-16.92Z"/><path class="cls-1" d="M231.58,32.86a4.38,4.38,0,1,1,4.35,4.23A4.24,4.24,0,0,1,231.58,32.86Z"/></svg>