<svg xmlns="http://www.w3.org/2000/svg" width="24" height="24" viewBox="0 0 24 24"><defs><style>.a{fill:none;}.b{fill-rule:evenodd;}</style></defs><rect class="a" width="24" height="24"/><path class="b" d="M14,6.5h2.5V8H14a6.983,6.983,0,0,0-5.257,2.377A5.5,5.5,0,0,1,14,6.5ZM7,16V12a7,7,0,0,1,7-7h4v7a7,7,0,0,1-7,7H7Zm9.257-2.377A5.5,5.5,0,0,1,11,17.5H8.5V16H11A6.983,6.983,0,0,0,16.257,13.623ZM16.478,9.5A5.5,5.5,0,0,1,11,14.5H8.522A5.5,5.5,0,0,1,14,9.5ZM14,11.5a.5.5,0,1,1-.5-.5A.5.5,0,0,1,14,11.5ZM11.5,13a.5.5,0,1,0-.5-.5A.5.5,0,0,0,11.5,13Z" transform="translate(-7)"/></svg>