<svg xmlns="http://www.w3.org/2000/svg" width="24" height="24" viewBox="0 0 24 24"><defs><style>.a{fill:none;}.b{fill:#fd631f;fill-rule:evenodd;}</style></defs><rect class="a" width="24" height="24"/><path class="b" d="M18,3a2,2,0,0,0-1.756,2.958q.015.023.03.048c.009.016.018.033.027.049A2,2,0,1,0,18,3ZM15.158,7.815A3.986,3.986,0,1,0,14.15,6.088l-5.308,3.1a4,4,0,1,0,0,5.629l5.309,3.093a4,4,0,1,0,1.01-1.726L9.851,13.087a4.027,4.027,0,0,0,0-2.175ZM7.7,10.946q.012.024.026.048l.029.047a2,2,0,0,1,0,1.917q-.016.024-.03.048c-.009.016-.018.032-.026.048a2,2,0,1,1,0-2.109ZM16,19a1.99,1.99,0,0,1,.215-.9,1.022,1.022,0,0,0,.069-.1,1,1,0,0,0,.054-.106A2,2,0,1,1,16,19Z"/></svg>