<svg id="ic_Guest_service" data-name="ic_Guest service" xmlns="http://www.w3.org/2000/svg" width="40" height="40" viewBox="0 0 40 40">
  <path id="Path_3" data-name="Path 3" d="M28.748,40a11.144,11.144,0,0,1-3.823-.683,40.77,40.77,0,0,1-14.8-9.437,40.768,40.768,0,0,1-9.437-14.8A11.064,11.064,0,0,1,.119,9.637,11.345,11.345,0,0,1,5.95,1.332,11.138,11.138,0,0,1,11.283,0a1.25,1.25,0,0,1,1.222.988l1.962,9.156a1.25,1.25,0,0,1-.338,1.146l-3.352,3.352A32.9,32.9,0,0,0,25.358,29.224l3.352-3.352a1.251,1.251,0,0,1,1.146-.338L39.012,27.5A1.25,1.25,0,0,1,40,28.717a11.138,11.138,0,0,1-1.332,5.333,11.346,11.346,0,0,1-8.305,5.831A11.119,11.119,0,0,1,28.748,40ZM10.284,2.555A8.759,8.759,0,0,0,3.033,14.222,37.913,37.913,0,0,0,25.779,36.967a8.759,8.759,0,0,0,11.667-7.251L30,28.12l-3.5,3.5a1.25,1.25,0,0,1-1.415.247A35.393,35.393,0,0,1,8.132,14.919,1.25,1.25,0,0,1,8.379,13.5l3.5-3.5Z" transform="translate(0 0)" fill="#705ebc"/>
</svg>
