<svg xmlns="http://www.w3.org/2000/svg" width="40" height="40" viewBox="0 0 40 40">
  <g id="ic_Touchpoint_hotel" data-name="ic_Touchpoint hotel" transform="translate(0 -16.017)">
    <path id="Path_11" data-name="Path 11" d="M70.038,216.216H43.58a3.63,3.63,0,0,1-3.58-3.67V193.239a1.245,1.245,0,1,1,2.49,0v19.307a1.1,1.1,0,0,0,1.089,1.117H70.038a1.1,1.1,0,0,0,1.089-1.117V193.239a1.245,1.245,0,1,1,2.49,0v19.307A3.63,3.63,0,0,1,70.038,216.216Z" transform="translate(-36.809 -160.199)" fill="#705ebc"/>
    <path id="Path_12" data-name="Path 12" d="M38.75,35.8a1.233,1.233,0,0,1-.884-.374L22.32,19.548a3.237,3.237,0,0,0-4.64,0L2.134,35.422a1.232,1.232,0,0,1-1.768,0,1.3,1.3,0,0,1,0-1.805L15.912,17.743a5.7,5.7,0,0,1,8.176,0L39.634,33.617a1.3,1.3,0,0,1,0,1.805,1.233,1.233,0,0,1-.884.374Z" transform="translate(0)" fill="#705ebc"/>
    <path id="Path_13" data-name="Path 13" d="M187.487,304.576H177.276A1.276,1.276,0,0,1,176,303.3V291.972a3.993,3.993,0,0,1,3.989-3.989h4.786a3.993,3.993,0,0,1,3.989,3.989V303.3A1.276,1.276,0,0,1,187.487,304.576Zm-8.935-2.553h7.658V291.972a1.438,1.438,0,0,0-1.436-1.436h-4.786a1.438,1.438,0,0,0-1.436,1.436Z" transform="translate(-162.382 -248.559)" fill="#705ebc"/>
  </g>
</svg>
