<svg xmlns="http://www.w3.org/2000/svg" xmlns:xlink="http://www.w3.org/1999/xlink" width="348.276" height="412.143" viewBox="0 0 348.276 412.143">
  <defs>
    <filter id="Контур_59" x="10.22" y="0" width="338.056" height="378.695" filterUnits="userSpaceOnUse">
      <feOffset dy="3" input="SourceAlpha"/>
      <feGaussianBlur stdDeviation="3" result="blur"/>
      <feFlood flood-opacity="0.161"/>
      <feComposite operator="in" in2="blur"/>
      <feComposite in="SourceGraphic"/>
    </filter>
    <filter id="Контур_28" x="0" y="48.976" width="338.056" height="363.167" filterUnits="userSpaceOnUse">
      <feOffset dy="3" input="SourceAlpha"/>
      <feGaussianBlur stdDeviation="3" result="blur-2"/>
      <feFlood flood-opacity="0.161"/>
      <feComposite operator="in" in2="blur-2"/>
      <feComposite in="SourceGraphic"/>
    </filter>
  </defs>
  <g id="ill_dnd" transform="translate(5 -202.475)">
    <g transform="matrix(1, 0, 0, 1, -5, 202.48)" filter="url(#Контур_59)">
      <path id="Контур_59-2" data-name="Контур 59" d="M87.582,199.692C73.412,208.747,57,222.848,54.374,251.864c-1.711,18.906,3.836,38.695,12.189,48.462,4.077,4.768,9.083,8.123,11.215,16.495,3.314,13.008-2.641,27.923-8.93,35.486S54.889,365.87,52.026,379.291c-1.887,8.846-1.147,19.148.721,28.009,6.851,32.5,26.825,46.727,44.589,44.989s34.612-15.439,52.037-22.495c59.839-24.225,122.578,30.759,182.314,5.562,9.3-3.922,18.659-10.058,25.839-22.388,8.092-13.9,12.687-34.865,13.38-56.031.662-20.192-2.954-42.928-12.083-52.027-5.334-5.319-11.71-5.1-17.5-2.209-3.7,1.848-7.332,4.741-11.146,4.79s-8.01-3.734-9.116-10.962c-1.162-7.6,1.486-15.444,4.523-20.629,6.178-10.545,14.438-15.813,20.048-27.535,5.4-11.279,7.67-28.094,5.838-43.2s-7.712-28.049-15.109-33.247c-18.851-13.248-39.39,22.868-58.666,12.286A7.2,7.2,0,0,1,274,179.671a20.261,20.261,0,0,1-.145-8.357c2.362-15.368,11.534-25.151,11.936-41.195a45.192,45.192,0,0,0-5.669-22.714C257.568,67.33,224.882,115,201.882,130.047,164.06,154.792,125.507,175.46,87.582,199.692Z" transform="translate(-31.71 -85.74)" fill="#494089" opacity="0.55"/>
    </g>
    <g id="Сгруппировать_1274" data-name="Сгруппировать 1274" transform="translate(36.048 318.441)">
      <path id="Контур_85" data-name="Контур 85" d="M397,43.882l36.252-.352-1.014,47.242L396,90.9Z" transform="translate(-396 -43.53)" fill="#e0e0e0"/>
      <path id="Контур_86" data-name="Контур 86" d="M401.059,47.475l31.729-.825-.919,42.84-31.719.389Z" transform="translate(-397.713 -45.011)" fill="#fafafa"/>
      <path id="Контур_87" data-name="Контур 87" d="M410.8,60.082l21.05-.352L431.2,89.673l-21.034-.447Z" transform="translate(-402.033 -51.22)" fill="#ebebeb"/>
    </g>
    <g id="Сгруппировать_1275" data-name="Сгруппировать 1275" transform="translate(274.232 311.743)">
      <path id="Контур_81" data-name="Контур 81" d="M89.227,97.269l-41.317-.4,1.15,53.845,41.317.152Z" transform="translate(-47.91 -96.87)" fill="#e0e0e0"/>
      <path id="Контур_82" data-name="Контур 82" d="M88.808,101.355,52.64,100.42l1.045,48.834,36.158.447Z" transform="translate(-50.155 -98.555)" fill="#fafafa"/>
      <path id="Контур_83" data-name="Контур 83" d="M88.052,115.729l-24-.4.735,34.135,23.976-.515Z" transform="translate(-55.571 -105.633)" fill="#ebebeb"/>
    </g>
    <g transform="matrix(1, 0, 0, 1, -5, 202.48)" filter="url(#Контур_28)">
      <path id="Контур_28-2" data-name="Контур 28" d="M87.582,195.045C73.412,203.709,57,217.2,54.374,244.97,52.662,263.062,58.21,282,66.563,291.346c4.077,4.563,9.083,7.773,11.215,15.784,3.314,12.448-2.641,26.721-8.93,33.958s-13.959,12.979-16.822,25.823c-1.887,8.465-1.147,18.323.721,26.8,6.851,31.1,26.825,44.715,44.589,43.052s34.612-14.775,52.037-21.526c59.839-23.182,122.578,29.435,182.314,5.323,9.3-3.753,18.659-9.625,25.839-21.424,8.092-13.3,12.687-33.364,13.38-53.619.662-19.322-2.954-41.08-12.083-49.787-5.334-5.09-11.71-4.881-17.5-2.114-3.7,1.768-7.332,4.537-11.146,4.584s-8.01-3.573-9.116-10.49c-1.162-7.272,1.486-14.779,4.523-19.741,6.178-10.091,14.438-15.133,20.048-26.35,5.4-10.794,7.67-26.884,5.838-41.343s-7.712-26.841-15.109-31.816c-18.851-12.677-39.39,21.884-58.666,11.758A6.978,6.978,0,0,1,274,175.885a18.573,18.573,0,0,1-.145-8c2.362-14.706,11.534-24.068,11.936-39.421a41.791,41.791,0,0,0-5.669-21.736C257.568,68.381,224.882,114,201.882,128.4,164.06,152.078,125.507,171.855,87.582,195.045Z" transform="translate(-41.93 -36.76)" fill="#494089"/>
    </g>
    <path id="Контур_45" data-name="Контур 45" d="M260.858,289.117c-4.732-.624-8.852,1.026-9.2,3.686a2.788,2.788,0,0,0-.01.577c1.027-2.146,4.739-3.387,8.941-2.833,4.389.579,7.757,2.91,7.943,5.367a2.826,2.826,0,0,0,.262-.853C269.142,292.4,265.59,289.741,260.858,289.117Z" transform="translate(-86.351 231.215)" fill="#494089" fill-rule="evenodd"/>
    <g id="Сгруппировать_1284" data-name="Сгруппировать 1284" transform="translate(139.253 261.124)">
      <path id="Контур_210" data-name="Контур 210" d="M415.179,356.812a32.511,32.511,0,0,0-13.914-4.825c-2.279-.232-4.763-.169-6.588,1.211a1.335,1.335,0,0,0-.677,1.2,1.451,1.451,0,0,0,.641.819,19.888,19.888,0,0,0,20.538,1.558" transform="translate(-390.377 -249.068)" fill="#8470d8"/>
      <path id="Контур_211" data-name="Контур 211" d="M415.567,354.306a67.956,67.956,0,0,1-8.991-7.914,22.754,22.754,0,0,1-5.6-10.442,4.2,4.2,0,0,1,.445-3.49c7.166,5.6,12.8,12.837,14.181,21.828" transform="translate(-391.121 -246.935)" fill="#8470d8"/>
      <path id="Контур_212" data-name="Контур 212" d="M417.654,354.7a32.663,32.663,0,0,1,.169-11.8,15.971,15.971,0,0,1,6.321-9.739c1.237,2.893.712,6.232-.16,9.25a44.868,44.868,0,0,1-6.232,13.131" transform="translate(-392.923 -247.012)" fill="#8470d8"/>
      <path id="Контур_213" data-name="Контур 213" d="M423.436,371.5a20.506,20.506,0,0,0-11.164,5.653,21.1,21.1,0,0,0-6.383,10.968c4.184-.258,7.736-3.214,10.309-6.516s4.353-6.944,7.184-10.033" transform="translate(-391.682 -251.221)" fill="#8470d8"/>
      <path id="Контур_214" data-name="Контур 214" d="M427.084,370.558a27.544,27.544,0,0,1,3.178-26.048c2.43,8.644,1.54,18.4-3.178,26.048" transform="translate(-393.798 -248.258)" fill="#8470d8"/>
      <path id="Контур_215" data-name="Контур 215" d="M435.367,386.185a19.87,19.87,0,0,0-19.042,10.959c-.231.472-.445,1.068-.125,1.487a1.389,1.389,0,0,0,1.255.374c3.757-.24,7.122-2.5,9.793-5.074s5.137-5.537,8.163-7.763" transform="translate(-392.796 -252.828)" fill="#8470d8"/>
      <path id="Контур_216" data-name="Контур 216" d="M437.223,382.258a35.361,35.361,0,0,1-.356-19.808c.694-2.555,1.87-5.235,4.229-6.436a.828.828,0,0,1,.641-.107.8.8,0,0,1,.409.472,11.921,11.921,0,0,1,1,5.68,36.194,36.194,0,0,1-.89,5.76c-.739,3.516-1.139,7.291-3.062,10.327a19.809,19.809,0,0,0-1.229,2.261c-.365.775-.365,1.042-.7,1.656" transform="translate(-394.946 -249.507)" fill="#8470d8"/>
      <path id="Контур_217" data-name="Контур 217" d="M464.918,386.929a25.782,25.782,0,0,1,4.451-21c.32-.418.748-.89,1.273-.819.8.08,1.015,1.148.979,1.959a37.959,37.959,0,0,1-6.7,19.861" transform="translate(-398.088 -250.518)" fill="#8470d8"/>
      <path id="Контур_218" data-name="Контур 218" d="M467.51,390.426a30.567,30.567,0,0,0,25.069-5.092,20.271,20.271,0,0,0-13.567-1.665c-4.54,1.033-8.68,3.062-11.5,6.757" transform="translate(-398.446 -252.502)" fill="#8470d8"/>
      <path id="Контур_219" data-name="Контур 219" d="M469.61,384.519c4.709-7.683,13.745-12.695,22.754-13.149-1.042,3.659-4.051,6.508-7.442,8.226s-7.184,2.466-10.923,3.2c-1.451.276-3.445.588-4.389,1.727" transform="translate(-398.676 -251.206)" fill="#8470d8"/>
      <path id="Контур_220" data-name="Контур 220" d="M465.145,357.729a66.58,66.58,0,0,0,2.911-13.353,22.007,22.007,0,0,0-2.671-13.175c-4.407,8.52-4.852,18.463-.392,26.956" transform="translate(-397.825 -246.797)" fill="#8470d8"/>
      <path id="Контур_221" data-name="Контур 221" d="M482.2,350.386c5.146-9.356,15.65-16.825,26.28-17.876-4.1,10.211-15.285,18.1-26.28,17.876" transform="translate(-400.058 -246.941)" fill="#8470d8"/>
      <path id="Контур_222" data-name="Контур 222" d="M478.56,354.457c7.674,1.175,14.244,6.071,21.366,9.045a9.447,9.447,0,0,0,4.834.89,3.783,3.783,0,0,0,2.377-6.694,10.291,10.291,0,0,0-3.516-2.128c-7.816-3.258-16.193-3.338-24.428-1.362" transform="translate(-399.659 -249.178)" fill="#8470d8"/>
      <path id="Контур_223" data-name="Контур 223" d="M473.57,360.66c1.736.5,2.332,1.4,3.7,2.573a40.06,40.06,0,0,0,16.265,8.377c.614.151,1.433.214,1.78-.347s-.071-1.077-.418-1.513a22.256,22.256,0,0,0-9.793-6.65c-3.748-1.4-6.988-3.08-11.457-2.715" transform="translate(-399.111 -249.995)" fill="#8470d8"/>
      <path id="Контур_224" data-name="Контур 224" d="M467.94,324.069a30.713,30.713,0,0,0,23.538,8.012,1.62,1.62,0,0,0,1.068-.383c.6-.641-.116-1.638-.81-2.172-6.917-5.395-15.3-7.638-23.8-5.448" transform="translate(-398.493 -245.924)" fill="#8470d8"/>
      <path id="Контур_225" data-name="Контур 225" d="M474.61,320.933a32.832,32.832,0,0,1,29.378-4.843,23.28,23.28,0,0,1-14,6.143,44.146,44.146,0,0,1-15.374-1.3" transform="translate(-399.225 -244.97)" fill="#8470d8"/>
      <path id="Контур_226" data-name="Контур 226" d="M471.511,302.378c-.677-6.908-.24-12.365-.721-19.3,0-.561-.151-1.22-.677-1.424-.721-.276-1.318.614-1.558,1.344a22.122,22.122,0,0,0,2.947,19.229" transform="translate(-398.45 -241.353)" fill="#8470d8"/>
      <path id="Контур_227" data-name="Контур 227" d="M471.4,303.113a40.486,40.486,0,0,0,11.44-11.119C485.1,288.9,487,285.2,486.494,281.4a10.968,10.968,0,0,0-8.261,4.1,23.148,23.148,0,0,0-4.2,8.466c-.89,3.036-1.558,6.16-2.671,9.143" transform="translate(-398.868 -241.331)" fill="#8470d8"/>
      <path id="Контур_228" data-name="Контур 228" d="M483.981,300.156a92.2,92.2,0,0,0,28.158-16.612c-3.365-1.353-7.211-.543-10.576.819a33.367,33.367,0,0,0-17.733,15.713" transform="translate(-400.237 -241.49)" fill="#8470d8"/>
      <path id="Контур_229" data-name="Контур 229" d="M475,309a58.992,58.992,0,0,0,15.641.071c5.163-.819,9.855-2.849,14.591-4.843a1.781,1.781,0,0,0,1-.757,1.149,1.149,0,0,0-.356-1.246,3.044,3.044,0,0,0-1.246-.588c-5.154-1.442-10.683-.766-15.775.944A73.231,73.231,0,0,0,475,309" transform="translate(-399.268 -243.465)" fill="#8470d8"/>
      <path id="Контур_230" data-name="Контур 230" d="M441.288,321.608c-3.561-7.122-3.312-15.508-.249-22.888,2.154,3.285,2.421,7.469,2.021,11.377s-1.585,7.941-1.656,11.867" transform="translate(-395.281 -243.232)" fill="#8470d8"/>
      <path id="Контур_231" data-name="Контур 231" d="M422.775,316.41a31.9,31.9,0,0,0-23.725,10.1,22.09,22.09,0,0,0,12.989-2.413,65.262,65.262,0,0,0,11.128-7.451" transform="translate(-390.931 -245.173)" fill="#8470d8"/>
      <path id="Контур_232" data-name="Контур 232" d="M412.248,312.778c-4.335-.356-8.5-.89-12.668.392a15.168,15.168,0,0,0-9.65,8.181,22.888,22.888,0,0,0,11.867-2.243,68.329,68.329,0,0,0,10.451-6.33" transform="translate(-389.93 -244.729)" fill="#8470d8"/>
      <path id="Контур_233" data-name="Контур 233" d="M427.705,312.176c-3.9-2.555-7.9-5.154-12.463-6.232s-9.793-.285-12.962,3.143c3.677,2.154,8.128,2.4,12.392,2.4s9.481-.053,13.5,1.371" transform="translate(-391.286 -243.976)" fill="#8470d8"/>
      <path id="Контур_234" data-name="Контур 234" d="M429.928,309.862c-6.659-6.543-9.187-18.294-6.5-27.232a41.485,41.485,0,0,1,6.5,27.232" transform="translate(-393.491 -241.466)" fill="#8470d8"/>
      <path id="Контур_235" data-name="Контур 235" d="M451.44,289.75c1.255-2.92,2.145-5.982,3.267-8.956a25.816,25.816,0,0,1,4.656-8.261,12.276,12.276,0,0,1,8.252-4.273A33.259,33.259,0,0,1,451.591,289.8" transform="translate(-396.682 -239.888)" fill="#8470d8"/>
      <path id="Контур_236" data-name="Контур 236" d="M445.595,295.29c-2.083-2.858-4.451-6.748-7.3-8.9s-6.49-3.427-9.935-2.608a23.146,23.146,0,0,0,17.235,11.493" transform="translate(-394.148 -241.564)" fill="#8470d8"/>
      <path id="Контур_237" data-name="Контур 237" d="M448.021,290.019a49.446,49.446,0,0,1-3.285-10.683A16.6,16.6,0,0,1,446.4,268.52c3.659,6.908,4.834,14.333,1.78,21.544" transform="translate(-395.915 -239.917)" fill="#8470d8"/>
      <path id="Контур_238" data-name="Контур 238" d="M451.48,266.752c2.074-6.855,8.35-11.9,15.134-14.244a5.572,5.572,0,0,1,2.671-.392,2.306,2.306,0,0,1,1.959,1.629c.249,1.166-.721,2.208-1.62,2.982a51.581,51.581,0,0,1-18.107,10" transform="translate(-396.686 -238.113)" fill="#8470d8"/>
      <path id="Контур_239" data-name="Контур 239" d="M451.547,259.42c.267-4.451.543-8.9,1.976-13.086s4.211-8.11,8.244-9.944c.685,4.451-1.291,8.9-3.659,12.739s-5.243,7.469-6.668,11.751" transform="translate(-396.682 -236.39)" fill="#8470d8"/>
      <path id="Контур_240" data-name="Контур 240" d="M449.857,262.717c-1.709-4.994-1.887-11.342-4.878-15.686-2.092-3.045-5.439-5.119-7.238-8.341a12.677,12.677,0,0,0,.418,9.463,27.41,27.41,0,0,0,5.537,7.923c2.208,2.359,4.1,4.14,6.16,6.641" transform="translate(-395.099 -236.642)" fill="#8470d8"/>
      <path id="Контур_241" data-name="Контур 241" d="M451.448,412.54c-.134,0-.249-33.321-.258-74.406s.089-74.414.223-74.414.249,33.313.258,74.414S451.582,412.54,451.448,412.54Z" transform="translate(-396.654 -239.39)" fill="#8470d8"/>
      <path id="Контур_242" data-name="Контур 242" d="M480.579,318.79a7.593,7.593,0,0,1-1.246.463l-3.454,1.166c-2.9.988-6.9,2.421-11.226,4.2s-8.341,3.338-10.683,5.341a7.861,7.861,0,0,0-2.137,2.831c-.329.774-.392,1.255-.436,1.246s0-.116,0-.347a5.547,5.547,0,0,1,.24-.97,7.612,7.612,0,0,1,2.092-3.018,18.889,18.889,0,0,1,4.611-2.867c1.852-.89,3.9-1.78,6.071-2.671,4.344-1.78,8.368-3.169,11.315-4.077,1.469-.463,2.671-.8,3.5-1.024a6.675,6.675,0,0,1,1.353-.276Z" transform="translate(-396.675 -245.435)" fill="#8470d8"/>
      <path id="Контур_243" data-name="Контур 243" d="M490.411,292.46s-.107.134-.347.374l-1.068,1c-1,.89-2.341,2.137-4,3.632l-13.282,11.822c-5.181,4.62-9.659,9.027-12.766,12.348-1.558,1.656-2.786,3.036-3.614,3.988l-.97,1.148c-.223.249-.347.383-.356.365a1.95,1.95,0,0,1,.285-.427c.2-.276.49-.659.89-1.157.8-1,1.985-2.413,3.516-4.1A168.429,168.429,0,0,1,471.4,308.983c5.208-4.6,9.944-8.742,13.353-11.724l4.1-3.508,1.131-.944A1.78,1.78,0,0,1,490.411,292.46Z" transform="translate(-396.964 -242.545)" fill="#8470d8"/>
      <path id="Контур_244" data-name="Контур 244" d="M467.618,315.208c-.142-.053.944-2.555,2.021-5.724s1.6-5.831,1.78-5.8a19.71,19.71,0,0,1-1.291,5.965,40.207,40.207,0,0,1-1.611,4.006A6.419,6.419,0,0,1,467.618,315.208Z" transform="translate(-398.456 -243.776)" fill="#8470d8"/>
      <path id="Контур_245" data-name="Контур 245" d="M449.131,336.292a6.287,6.287,0,0,1-.792-.935l-2.048-2.617c-1.718-2.226-4.1-5.3-6.766-8.653s-5.092-6.365-6.873-8.528c-.837-1.033-1.531-1.905-2.092-2.591a7.567,7.567,0,0,1-.721-.988,5.576,5.576,0,0,1,.89.89c.534.579,1.291,1.433,2.217,2.493,1.843,2.128,4.335,5.11,7.006,8.475s5,6.463,6.65,8.742c.828,1.131,1.487,2.065,1.932,2.715A5.738,5.738,0,0,1,449.131,336.292Z" transform="translate(-394.311 -244.687)" fill="#8470d8"/>
      <path id="Контур_246" data-name="Контур 246" d="M443.933,328.836a11.626,11.626,0,0,1-2.671-5,14.315,14.315,0,0,1-.605-5.048h.214c-.1.383-.169.588-.2.579s-.045-.223,0-.614h.214a23.143,23.143,0,0,0,.89,4.905,38.819,38.819,0,0,0,2.163,5.181Z" transform="translate(-395.495 -245.43)" fill="#8470d8"/>
      <path id="Контур_247" data-name="Контур 247" d="M433.312,318.174a8.849,8.849,0,0,0-1.869-1.077,12.463,12.463,0,0,0-5.19-.418,32.366,32.366,0,0,0-5.217.846,16.3,16.3,0,0,1-2.145.516,7.478,7.478,0,0,1,2.056-.846,24.374,24.374,0,0,1,5.27-1,11.341,11.341,0,0,1,5.341.579,3.392,3.392,0,0,1,1.754,1.4Z" transform="translate(-393.109 -245.14)" fill="#8470d8"/>
      <path id="Контур_248" data-name="Контур 248" d="M430.394,315.232c0,.08-1.086-.436-2.858-1.042a29.724,29.724,0,0,0-7.122-1.469,29.217,29.217,0,0,0-7.282.374c-1.843.329-2.956.677-2.982.6a2.769,2.769,0,0,1,.757-.329,20.42,20.42,0,0,1,2.163-.605,25.452,25.452,0,0,1,14.6,1.113,17.813,17.813,0,0,1,2.039.89,2.86,2.86,0,0,1,.685.472Z" transform="translate(-392.149 -244.708)" fill="#8470d8"/>
      <path id="Контур_249" data-name="Контур 249" d="M450.983,301.878a60.539,60.539,0,0,1-2.083-7.247,58.307,58.307,0,0,1-1.62-7.371,61.007,61.007,0,0,1,2.083,7.255A58.025,58.025,0,0,1,450.983,301.878Z" transform="translate(-396.225 -241.974)" fill="#8470d8"/>
      <path id="Контур_250" data-name="Контур 250" d="M450.885,302.712a34.145,34.145,0,0,0-2.315-4.344,19.1,19.1,0,0,0-3.4-3.508,3.09,3.09,0,0,1,1.318.677,10.816,10.816,0,0,1,2.484,2.555,9.6,9.6,0,0,1,1.914,4.62Z" transform="translate(-395.994 -242.808)" fill="#8470d8"/>
      <path id="Контур_251" data-name="Контур 251" d="M447.716,404.944c-.053,0-.151-.8-.525-2.217a31.755,31.755,0,0,0-2.226-5.769,79.548,79.548,0,0,0-11.813-16.638c-2.671-3.018-5.2-5.858-7.371-8.582a59.846,59.846,0,0,1-5.261-7.594,36.5,36.5,0,0,1-2.671-5.644c-.249-.694-.427-1.237-.525-1.611a2.376,2.376,0,0,1-.133-.57c.044,0,.285.757.837,2.119a39.617,39.617,0,0,0,2.778,5.528,63.048,63.048,0,0,0,5.341,7.5c2.181,2.671,4.745,5.519,7.389,8.537,5.341,5.991,9.517,12.027,11.751,16.808a28.147,28.147,0,0,1,2.1,5.876c.16.721.258,1.282.3,1.674a2.67,2.67,0,0,1,.027.588Z" transform="translate(-392.922 -249.554)" fill="#8470d8"/>
      <path id="Контур_252" data-name="Контур 252" d="M477.757,377.559a13.23,13.23,0,0,1-1.38.775,31,31,0,0,0-3.561,2.359,40.146,40.146,0,0,0-4.7,4.291q-2.47,2.671-5.083,5.929c-3.463,4.344-6.7,8.19-8.644,11.261-.988,1.522-1.7,2.813-2.172,3.712a11.564,11.564,0,0,1-.757,1.389.987.987,0,0,1,.125-.392c.125-.249.24-.623.463-1.077A35.239,35.239,0,0,1,454.1,402c1.878-3.142,5.1-7.042,8.555-11.386,1.736-2.172,3.454-4.2,5.137-5.938a37.593,37.593,0,0,1,4.816-4.246,25.25,25.25,0,0,1,3.694-2.261c.454-.231.828-.365,1.068-.472A1.087,1.087,0,0,1,477.757,377.559Z" transform="translate(-396.684 -251.885)" fill="#8470d8"/>
      <path id="Контур_253" data-name="Контур 253" d="M479.367,388.385a19.582,19.582,0,0,1-2.911.418,38.512,38.512,0,0,0-6.917,1.362,20.93,20.93,0,0,0-6.187,3.249c-1.424,1.1-2.1,2.012-2.163,1.959s.116-.258.427-.668a11.356,11.356,0,0,1,1.522-1.558,18.811,18.811,0,0,1,6.232-3.436,31.1,31.1,0,0,1,7.024-1.246A15.6,15.6,0,0,1,479.367,388.385Z" transform="translate(-397.751 -253.07)" fill="#8470d8"/>
      <path id="Контур_254" data-name="Контур 254" d="M462.139,393.833c-.151-.08,1.166-2.092,2.181-4.789s1.184-5.11,1.353-5.083a4.593,4.593,0,0,1-.045,1.567,16.854,16.854,0,0,1-.89,3.686,17.366,17.366,0,0,1-1.691,3.374A4.593,4.593,0,0,1,462.139,393.833Z" transform="translate(-397.855 -252.588)" fill="#8470d8"/>
      <path id="Контур_255" data-name="Контур 255" d="M486.307,348.49a2.618,2.618,0,0,1-.463.249l-1.371.614c-.6.258-1.326.588-2.145,1.024s-1.78.89-2.786,1.46l-1.594.89c-.552.312-1.1.685-1.674,1.05-1.175.712-2.35,1.585-3.561,2.484a67.11,67.11,0,0,0-7.514,6.606,69.155,69.155,0,0,0-6.356,7.736c-.846,1.282-1.683,2.493-2.35,3.686-.347.588-.7,1.148-1,1.709l-.89,1.62c-.561,1.024-.97,1.994-1.362,2.831s-.712,1.576-.944,2.181-.427,1.024-.579,1.4a1.906,1.906,0,0,1-.231.472,2.125,2.125,0,0,1,.142-.507c.134-.374.294-.846.49-1.424a21.635,21.635,0,0,1,.89-2.226c.4-.855.757-1.843,1.309-2.875l.828-1.647c.294-.57.641-1.131.979-1.736.659-1.211,1.487-2.43,2.332-3.73a59.825,59.825,0,0,1,13.959-14.431c1.273-.89,2.457-1.78,3.65-2.466.588-.356,1.139-.73,1.7-1.033l1.62-.89c1.015-.579,1.994-1,2.831-1.407s1.576-.712,2.19-.944l1.407-.543A1.977,1.977,0,0,1,486.307,348.49Z" transform="translate(-396.687 -248.695)" fill="#8470d8"/>
      <path id="Контур_256" data-name="Контур 256" d="M467.21,363.73a3.454,3.454,0,0,1,1.148-1.709,7.291,7.291,0,0,1,4.611-1.78,12.867,12.867,0,0,1,4.863.954,7.2,7.2,0,0,1,1.831.889,10.682,10.682,0,0,1-1.95-.57,14.547,14.547,0,0,0-4.727-.783,7.54,7.54,0,0,0-4.407,1.54A14.822,14.822,0,0,0,467.21,363.73Z" transform="translate(-398.413 -249.985)" fill="#8470d8"/>
      <path id="Контур_257" data-name="Контур 257" d="M463.72,366.686a17.282,17.282,0,0,0,1.309-4.255,16.984,16.984,0,0,0-.294-4.451,2.876,2.876,0,0,1,.543,1.237,8.982,8.982,0,0,1,.231,3.267,8.669,8.669,0,0,1-.979,3.125C464.121,366.339,463.764,366.722,463.72,366.686Z" transform="translate(-398.03 -249.737)" fill="#8470d8"/>
      <path id="Контур_258" data-name="Контур 258" d="M425.63,416.3c.721,12.73,4.558,25.683,10.46,38.77h25.657c5.635-12.962,9.2-25.888,9.837-38.77Z" transform="translate(-393.849 -256.138)" fill="#8470d8"/>
      <path id="Контур_259" data-name="Контур 259" d="M467.926,439.41c0,.134-8.448.24-18.873.24s-18.873-.107-18.873-.24,8.448-.24,18.873-.24S467.926,439.277,467.926,439.41Z" transform="translate(-394.348 -258.649)" fill="#8470d8"/>
      <path id="Контур_260" data-name="Контур 260" d="M467.577,444.59c0,.134-7.923.249-17.7.249s-17.689-.116-17.689-.249,7.923-.24,17.689-.24S467.577,444.466,467.577,444.59Z" transform="translate(-394.569 -259.217)" fill="#8470d8"/>
      <path id="Контур_261" data-name="Контур 261" d="M437.81,425.69a72.8,72.8,0,0,1,0,11.822,72.809,72.809,0,0,1,0-11.822Z" transform="translate(-395.159 -257.169)" fill="#8470d8"/>
      <path id="Контур_262" data-name="Контур 262" d="M453.26,425.69a78.046,78.046,0,0,1,0,12.241A78.031,78.031,0,0,1,453.26,425.69Z" transform="translate(-396.855 -257.169)" fill="#8470d8"/>
      <path id="Контур_263" data-name="Контур 263" d="M467.76,425.57a81.252,81.252,0,0,1,0,12.463,81.248,81.248,0,0,1,0-12.463Z" transform="translate(-398.447 -257.156)" fill="#8470d8"/>
      <path id="Контур_264" data-name="Контур 264" d="M470.881,425.66c0,.134-9.917.24-22.131.24s-22.14-.107-22.14-.24,9.908-.24,22.14-.24S470.881,425.527,470.881,425.66Z" transform="translate(-393.956 -257.139)" fill="#8470d8"/>
    </g>
    <g id="Сгруппировать_1285" data-name="Сгруппировать 1285" transform="translate(180.132 475.846)">
      <rect id="Прямоугольник_1720" data-name="Прямоугольник 1720" width="7.371" height="36.669" transform="translate(88.952 13.066) rotate(-0.573)" fill="#e0e0e0"/>
      <rect id="Прямоугольник_1721" data-name="Прямоугольник 1721" width="19.087" height="20.244" transform="matrix(1, -0.005, 0.005, 1, 24.844, 13.876)" fill="#ebebeb"/>
      <rect id="Прямоугольник_1722" data-name="Прямоугольник 1722" width="19.087" height="20.244" transform="matrix(1, -0.005, 0.005, 1, 43.832, 13.773)" fill="#f5f5f5"/>
      <path id="Контур_273" data-name="Контур 273" d="M87.763,72.385q19.033.151,38.075-.178a.2.2,0,0,0,0-.41q-19.033-.089-38.075.24a.178.178,0,0,0,0,.347Z" transform="translate(-62.899 -52.914)" fill="#e0e0e0"/>
      <rect id="Прямоугольник_1723" data-name="Прямоугольник 1723" width="34.666" height="16.496" transform="matrix(1, -0.005, 0.005, 1, 12.942, 33.854)" fill="#ebebeb"/>
      <rect id="Прямоугольник_1724" data-name="Прямоугольник 1724" width="34.666" height="16.496" transform="matrix(1, -0.005, 0.005, 1, 47.446, 33.677)" fill="#f5f5f5"/>
      <path id="Контур_274" data-name="Контур 274" d="M74.393,93.68c23.03.267,46.141,0,69.171-.338a.2.2,0,0,0,0-.41c-23.03-.116-46.141-.107-69.171.4a.178.178,0,0,0,0,.347Z" transform="translate(-61.431 -55.229)" fill="#e0e0e0"/>
      <rect id="Прямоугольник_1725" data-name="Прямоугольник 1725" width="134.318" height="5.911" transform="translate(0 50.363)" fill="#e0e0e0"/>
      <rect id="Прямоугольник_1726" data-name="Прямоугольник 1726" width="5.448" height="20.164" transform="translate(21.989 53.203)" fill="#e0e0e0"/>
      <rect id="Прямоугольник_1727" data-name="Прямоугольник 1727" width="5.457" height="20.164" transform="translate(103.383 53.203)" fill="#e0e0e0"/>
      <rect id="Прямоугольник_1728" data-name="Прямоугольник 1728" width="7.371" height="50.432" transform="matrix(1, -0.005, 0.005, 1, 95.862, 0.04)" fill="#ebebeb"/>
      <rect id="Прямоугольник_1729" data-name="Прямоугольник 1729" width="11.448" height="40.871" transform="matrix(1, -0.005, 0.005, 1, 103.302, 9.445)" fill="#f5f5f5"/>
      <path id="Контур_275" data-name="Контур 275" d="M187.248,69.973a39.733,39.733,0,0,1-5.724.2,39.631,39.631,0,0,1-5.724-.2,42.162,42.162,0,0,1,5.724-.2,42.272,42.272,0,0,1,5.724.2Z" transform="translate(-72.578 -52.691)" fill="#e0e0e0"/>
      <path id="Контур_276" data-name="Контур 276" d="M187.248,68.031a42.268,42.268,0,0,1-5.724.2,42.163,42.163,0,0,1-5.724-.2,39.631,39.631,0,0,1,5.724-.2,39.731,39.731,0,0,1,5.724.2Z" transform="translate(-72.578 -52.477)" fill="#e0e0e0"/>
      <path id="Контур_277" data-name="Контур 277" d="M187.248,100.113a42.269,42.269,0,0,1-5.724.2,42.159,42.159,0,0,1-5.724-.2,42.163,42.163,0,0,1,5.724-.2,42.265,42.265,0,0,1,5.724.2Z" transform="translate(-72.578 -56)" fill="#e0e0e0"/>
      <path id="Контур_278" data-name="Контур 278" d="M187.248,98.183a42.266,42.266,0,0,1-5.724.2,42.162,42.162,0,0,1-5.724-.2,42.159,42.159,0,0,1,5.724-.2,42.268,42.268,0,0,1,5.724.2Z" transform="translate(-72.578 -55.788)" fill="#e0e0e0"/>
      <path id="Контур_279" data-name="Контур 279" d="M182.406,91.73c-.107,0-.2-4.122-.2-9.205s.089-9.2.2-9.2.2,4.122.2,9.2S182.522,91.73,182.406,91.73Z" transform="translate(-73.281 -53.083)" fill="#e0e0e0"/>
      <rect id="Прямоугольник_1730" data-name="Прямоугольник 1730" width="12.463" height="30.847" transform="translate(114.795 19.427)" fill="#ebebeb"/>
      <path id="Контур_280" data-name="Контур 280" d="M173.407,60.009a2.119,2.119,0,1,1-2.119-2.119,2.119,2.119,0,0,1,2.119,2.119Z" transform="translate(-71.85 -51.389)" fill="#e0e0e0"/>
      <rect id="Прямоугольник_1731" data-name="Прямоугольник 1731" width="1.309" height="30.001" transform="translate(98.78 14.442)" fill="#e0e0e0"/>
    </g>
    <path id="Контур_77" data-name="Контур 77" d="M122.5,279.69l-5.343,10.738,6.561-.074L122.5,279.69" transform="translate(96.063 180.615)" fill="#ebebeb"/>
    <g id="Сгруппировать_1276" data-name="Сгруппировать 1276" transform="translate(190.183 452.242)">
      <path id="Контур_69" data-name="Контур 69" d="M41.877,423.9v13.186H38.836a18.287,18.287,0,0,0,0-4.176c-.289-1.55-3.593-5.553-3.493-8.988Z" transform="translate(28.926 -340.08)" fill="#ebebeb"/>
      <path id="Контур_70" data-name="Контур 70" d="M88.2,423.9v13.186H85.156a18.286,18.286,0,0,0,0-4.176c-.289-1.55-3.593-5.553-3.493-8.988Z" transform="translate(-41.727 -340.08)" fill="#e0e0e0"/>
      <path id="Контур_71" data-name="Контур 71" d="M114.536,423.9v13.186h3.047a18.617,18.617,0,0,1,0-4.176c.294-1.55,3.593-5.553,3.5-8.988Z" transform="translate(-91.884 -340.08)" fill="#ebebeb"/>
      <path id="Контур_72" data-name="Контур 72" d="M154.636,423.9v13.186h3.042a18.62,18.62,0,0,1,0-4.176c.289-1.55,3.593-5.553,3.493-8.988Z" transform="translate(-153.039 -340.08)" fill="#e0e0e0"/>
      <rect id="Прямоугольник_1707" data-name="Прямоугольник 1707" width="72.873" height="65.439" transform="translate(0 18.801)" fill="#f5f5f5"/>
      <path id="Контур_73" data-name="Контур 73" d="M152.381,300.13l-.541,65.439H132.75V300.13Z" transform="translate(-132.75 -281.329)" fill="#e0e0e0"/>
      <rect id="Прямоугольник_1708" data-name="Прямоугольник 1708" width="46.785" height="16.653" transform="translate(22.809 23.618)" fill="#ebebeb"/>
      <rect id="Прямоугольник_1709" data-name="Прямоугольник 1709" width="46.785" height="16.653" transform="translate(22.809 43.586)" fill="#ebebeb"/>
      <rect id="Прямоугольник_1710" data-name="Прямоугольник 1710" width="46.785" height="16.653" transform="translate(22.809 63.559)" fill="#ebebeb"/>
      <path id="Контур_74" data-name="Контур 74" d="M93.922,264.34l2.017,18.728H70.083L67.94,264.34Z" transform="translate(-42.262 -264.34)" fill="#e0e0e0"/>
      <path id="Контур_75" data-name="Контур 75" d="M93.326,266.9l1.965,16.385H71.956L70.07,266.9Z" transform="translate(-42.732 -265.555)" fill="#fff"/>
      <path id="Контур_76" data-name="Контур 76" d="M93.253,272.15l1.208,10.874H79.736L78.98,272.15Z" transform="translate(-46.583 -268.047)" fill="#ebebeb"/>
      <path id="Контур_78" data-name="Контур 78" d="M78.91,325.257a1.713,1.713,0,1,0,1.713-1.707,1.713,1.713,0,0,0-1.713,1.707Z" transform="translate(-34.42 -292.446)" fill="#e0e0e0"/>
      <path id="Контур_79" data-name="Контур 79" d="M78.91,363.653a1.707,1.707,0,1,0,.5-1.212,1.713,1.713,0,0,0-.5,1.212Z" transform="translate(-34.421 -310.669)" fill="#e0e0e0"/>
      <path id="Контур_80" data-name="Контур 80" d="M78.91,402.043a1.713,1.713,0,1,0,1.713-1.713A1.713,1.713,0,0,0,78.91,402.043Z" transform="translate(-34.421 -328.892)" fill="#e0e0e0"/>
    </g>
    <g id="freepik--Checklist--inject-17" transform="translate(81.583 347.482)">
      <rect id="Прямоугольник_1711" data-name="Прямоугольник 1711" width="127.396" height="174.564" transform="translate(0 5.395)" fill="#8f969f"/>
      <path id="Контур_110" data-name="Контур 110" d="M157.93,245.749H269.676V88.62H157.93V245.749Z" transform="translate(-152.892 -76.17)" fill="#e0e0e0"/>
      <path id="Контур_111" data-name="Контур 111" d="M156.48,240.958H267.223V84.67H156.48V240.958Z" transform="translate(-149.677 -74.295)" fill="#ebebeb"/>
      <path id="Контур_112" data-name="Контур 112" d="M163.387,229.153l12.755,10.386H264.3V85.42H152.55V220.364Z" transform="translate(-144.686 -74.651)" fill="#fafafa"/>
      <path id="Контур_113" data-name="Контур 113" d="M163.253,229.009s-.226-.194-.683-.567l-2.044-1.671-8.085-6.582v.032c0-22.169.042-71.444.079-134.944l-.121.126H264.147l-.137-.137c0,57.943,0,111.394.031,154.119l.105-.11-88.154.063h.032l-9.582-7.77-2.4-1.938c-.525-.431-.8-.641-.8-.641l.788.657,2.4,1.991,9.55,7.806h0l88.186.074h.11v-.11c0-42.724,0-96.176.026-154.119V85.15H152.29v.121c.037,63.522.068,112.776.079,134.944h0l8.116,6.551,2.054,1.718Z" transform="translate(-144.552 -74.523)" fill="#263238"/>
      <path id="Контур_114" data-name="Контур 114" d="M253.431,64.92H222.883a7.433,7.433,0,0,0-7.433,7.433V80.6h45.734V72.668a7.754,7.754,0,0,0-7.754-7.748Z" transform="translate(-174.617 -64.92)" fill="#7e57c2"/>
      <path id="Контур_116" data-name="Контур 116" d="M174.8,150.987h18.822V132.16H174.8Zm18.3-.525H175.325V132.685H193.1Z" transform="translate(-85.7 -96.837)" fill="#7e57c2"/>
      <path id="Контур_117" data-name="Контур 117" d="M225.85,140.7c0,.074,13.107.137,29.266.137s29.271-.063,29.271-.137-13.1-.137-29.271-.137S225.85,140.618,225.85,140.7Z" transform="translate(-203.282 -100.825)" fill="#263238"/>
      <path id="Контур_118" data-name="Контур 118" d="M225.85,148.137c0,.079,13.107.137,29.266.137s29.271-.058,29.271-.137-13.1-.137-29.271-.137S225.85,148.063,225.85,148.137Z" transform="translate(-203.282 -104.356)" fill="#263238"/>
      <path id="Контур_119" data-name="Контур 119" d="M225.85,155.587c0,.074,13.107.137,29.266.137s29.271-.063,29.271-.137-13.1-.137-29.271-.137S225.85,155.513,225.85,155.587Z" transform="translate(-203.282 -107.893)" fill="#263238"/>
      <path id="Контур_120" data-name="Контур 120" d="M225.85,163.037c0,.074,13.107.137,29.266.137s29.271-.063,29.271-.137-13.1-.137-29.271-.137S225.85,162.953,225.85,163.037Z" transform="translate(-203.282 -111.429)" fill="#263238"/>
      <path id="Контур_121" data-name="Контур 121" d="M174.8,206.218h18.822V187.39H174.8Zm18.3-.525H175.325V187.915H193.1Z" transform="translate(-85.7 -123.054)" fill="#7e57c2"/>
      <path id="Контур_122" data-name="Контур 122" d="M200.406,198.27l-2.5-2.684-4.166,3.331-9.535-9.256-2.285,2.695,12,11.841Z" transform="translate(-96.224 -124.131)" fill="#5ebc6f"/>
      <path id="Контур_123" data-name="Контур 123" d="M225.85,195.927c0,.074,13.107.137,29.266.137s29.271-.063,29.271-.137-13.1-.137-29.271-.137S225.85,195.853,225.85,195.927Z" transform="translate(-203.282 -127.041)" fill="#263238"/>
      <path id="Контур_124" data-name="Контур 124" d="M225.85,203.377c0,.074,13.107.137,29.266.137s29.271-.063,29.271-.137-13.1-.137-29.271-.137S225.85,203.3,225.85,203.377Z" transform="translate(-203.282 -130.578)" fill="#263238"/>
      <path id="Контур_125" data-name="Контур 125" d="M225.85,210.817c0,.079,13.107.137,29.266.137s29.271-.058,29.271-.137-13.1-.137-29.271-.137S225.85,210.743,225.85,210.817Z" transform="translate(-203.282 -134.109)" fill="#263238"/>
      <path id="Контур_126" data-name="Контур 126" d="M225.85,218.267c0,.074,13.107.137,29.266.137s29.271-.063,29.271-.137-13.1-.137-29.271-.137S225.85,218.193,225.85,218.267Z" transform="translate(-203.282 -137.646)" fill="#263238"/>
      <path id="Контур_127" data-name="Контур 127" d="M174.8,259.667h18.822V240.84H174.8Zm18.3-.525H175.325V241.365H193.1Z" transform="translate(-85.7 -148.426)" fill="#7e57c2"/>
      <path id="Контур_128" data-name="Контур 128" d="M200.406,251.72l-2.5-2.684-4.166,3.331-9.535-9.256L181.92,245.8l12,11.841Z" transform="translate(-96.224 -149.503)" fill="#5ebc6f"/>
      <path id="Контур_129" data-name="Контур 129" d="M225.85,249.377c0,.074,13.107.137,29.266.137s29.271-.063,29.271-.137-13.1-.137-29.271-.137S225.85,249.3,225.85,249.377Z" transform="translate(-203.282 -152.413)" fill="#263238"/>
      <path id="Контур_130" data-name="Контур 130" d="M225.85,256.817c0,.079,13.107.137,29.266.137s29.271-.058,29.271-.137-13.1-.137-29.271-.137S225.85,256.743,225.85,256.817Z" transform="translate(-203.282 -155.944)" fill="#263238"/>
      <path id="Контур_131" data-name="Контур 131" d="M225.85,264.267c0,.079,13.107.137,29.266.137s29.271-.058,29.271-.137-13.1-.137-29.271-.137S225.85,264.193,225.85,264.267Z" transform="translate(-203.282 -159.481)" fill="#263238"/>
      <path id="Контур_132" data-name="Контур 132" d="M225.85,271.717c0,.074,13.107.137,29.266.137s29.271-.063,29.271-.137-13.1-.137-29.271-.137S225.85,271.643,225.85,271.717Z" transform="translate(-203.282 -163.017)" fill="#263238"/>
      <path id="Контур_133" data-name="Контур 133" d="M174.8,311.277h18.822V292.45H174.8Zm18.3-.525H175.325V292.975H193.1Z" transform="translate(-85.7 -172.924)" fill="#7e57c2"/>
      <path id="Контур_134" data-name="Контур 134" d="M200.406,303.33l-2.5-2.684-4.166,3.331-9.535-9.256-2.285,2.69,12,11.841Z" transform="translate(-96.224 -174.001)" fill="#5ebc6f"/>
      <path id="Контур_135" data-name="Контур 135" d="M225.85,300.977c0,.079,13.107.137,29.266.137s29.271-.058,29.271-.137-13.1-.137-29.271-.137S225.85,300.924,225.85,300.977Z" transform="translate(-203.282 -176.906)" fill="#263238"/>
      <path id="Контур_136" data-name="Контур 136" d="M225.85,308.427c0,.074,13.107.137,29.266.137s29.271-.063,29.271-.137-13.1-.137-29.271-.137S225.85,308.353,225.85,308.427Z" transform="translate(-203.282 -180.443)" fill="#263238"/>
      <path id="Контур_137" data-name="Контур 137" d="M225.85,315.877c0,.074,13.107.137,29.266.137s29.271-.063,29.271-.137-13.1-.137-29.271-.137S225.85,315.8,225.85,315.877Z" transform="translate(-203.282 -183.979)" fill="#263238"/>
      <path id="Контур_138" data-name="Контур 138" d="M225.85,323.317c0,.079,13.107.137,29.266.137s29.271-.058,29.271-.137-13.1-.137-29.271-.137S225.85,323.243,225.85,323.317Z" transform="translate(-203.282 -187.511)" fill="#263238"/>
      <path id="Контур_139" data-name="Контур 139" d="M303.71,330.23,315.96,355.6h-8.747Z" transform="translate(-275.758 -190.857)" fill="#e0e0e0"/>
      <path id="Контур_140" data-name="Контур 140" d="M343.952,355.873l-3.5-25.373-20.088,6.2Z" transform="translate(-312.496 -190.985)" fill="#fafafa"/>
      <path id="Контур_141" data-name="Контур 141" d="M344.22,355.7l-6.756-5.563-16.753-13.716-.047.231,7.759-2.385,12.308-3.819-.163-.105c1.051,7.354,1.949,13.685,2.585,18.171.636,4.365.961,6.619,1.051,7.186a1.106,1.106,0,0,0,0-.116l-.047-.347c-.042-.331-.1-.793-.179-1.382-.163-1.234-.394-3-.688-5.253-.609-4.523-1.46-10.885-2.453-18.318v-.147l-.142.042-12.34,3.8-7.754,2.4-.242.074.194.158c6.782,5.469,12.713,10.249,16.957,13.658l4.954,3.977,1.324,1.051.336.268Z" transform="translate(-312.764 -190.814)" fill="#263238"/>
    </g>
    <g id="freepik--Character--inject-17" transform="translate(166.071 388.904)">
      <path id="Контур_143" data-name="Контур 143" d="M135.552,193.224h0a4.728,4.728,0,0,1-5.08-4.528c-.1-2.574-.189-5.174-.189-5.174s-3.9-.362-4.2-4.2-.152-12.76-.152-12.76h0a13.432,13.432,0,0,1,13.585.872l-.236,13.574v7.307C139.271,190.739,137.995,193.04,135.552,193.224Z" transform="translate(-90.385 -153.904)" fill="#ffbe9d"/>
      <path id="Контур_144" data-name="Контур 144" d="M131.3,171.07a1.738,1.738,0,0,1,.639,2.422c-.4.72-.342,1.589-1.145,1.779a1.481,1.481,0,0,0-1.161,1.576,4.938,4.938,0,0,0,1.355,2.684c1.19,1.211,6.376,6.276,8.068,6.421,1.644.194,3.525-.147,4.481-1.5.7-.982,2.4-3.386,2.422-4.589.06-2.844-5.077-13.788-5.268-14.8a4.118,4.118,0,0,0-1.618-2.532c-.94-.62-1.608-1.514-2.674-1.856-1.34-.436-2.994-.477-4.244-1.118a4.563,4.563,0,0,0-4.034-.394c-.9.452-1.508,1.35-2.38,1.849-1.25.709-2.947.525-3.551,2.385a3.089,3.089,0,0,0,0,1.959,4.535,4.535,0,0,0,6.162,2.427,6.044,6.044,0,0,0,.074,2.695c.142.431.189,1.077.856,1.093" transform="translate(-89.748 -150.927)" fill="#263238"/>
      <path id="Контур_149" data-name="Контур 149" d="M113.44,237.111s1.97,14.4,0,16.232a4.1,4.1,0,0,1-3.856,1.219l-3.746-3.152-.735-14.32Z" transform="translate(-54.268 -188.067)" fill="#ffbe9d"/>
      <path id="Контур_150" data-name="Контур 150" d="M202.706,152.38l-2.5-2.684-4.166,3.331-9.535-9.256-2.285,2.695,12,11.841Z" transform="translate(-184.22 -143.77)" fill="#5ebc6f"/>
      <path id="Контур_151" data-name="Контур 151" d="M166.787,161.55l3.625,2.327c.163-1.434,1.256-2.852,1.2-2.133s0,4.455,0,4.455l6.456,13.6a6.444,6.444,0,0,0,3.987,3.83l6.046,1.8-2.359,7.98-8.405-2.784a7.234,7.234,0,0,1-4.6-4.607l-5.779-17.609a27.363,27.363,0,0,1-.925-3.467A6.6,6.6,0,0,1,166.787,161.55Z" transform="translate(-160.047 -152.21)" fill="#ffbe9d"/>
      <path id="Контур_152" data-name="Контур 152" d="M140.625,441.079l.095-4.029,7.554.121-.068,5.9-.473.026c-2.1.079-10.617.268-12-.173C134.185,442.424,140.625,441.079,140.625,441.079Z" transform="translate(-104.189 -282.984)" fill="#7e57c2"/>
      <g id="Сгруппировать_1268" data-name="Сгруппировать 1268" transform="translate(41.274 157.876)" opacity="0.5">
        <path id="Контур_153" data-name="Контур 153" d="M135.57,446.413a2.626,2.626,0,0,1,.993-1.576,2.537,2.537,0,0,1,1.776-.525l-.032,2.1Z" transform="translate(-135.57 -444.302)" fill="#fff"/>
      </g>
      <g id="Сгруппировать_1269" data-name="Сгруппировать 1269" transform="translate(31.302 158.868)" opacity="0.4">
        <path id="Контур_154" data-name="Контур 154" d="M137.589,446.19s-2.259.609-1.986.988,8.9.525,12.713.231v-.168l-10.065-.068S138,446.216,137.589,446.19Z" transform="translate(-135.58 -446.19)" fill="#fff"/>
      </g>
      <path id="Контур_155" data-name="Контур 155" d="M148.2,447.99h-.5l-1.376.037c-1.161.026-2.763.037-4.534,0s-3.378-.084-4.534-.142l-1.376-.079-.373-.026h.378l1.371.053c1.161.037,2.763.089,4.534.116s3.373,0,4.534,0h1.9Z" transform="translate(-104.076 -288.077)" fill="#263238"/>
      <path id="Контур_156" data-name="Контур 156" d="M155.5,447.212a2.821,2.821,0,0,0-.247-.657,3.119,3.119,0,0,0-.457-.525,1.229,1.229,0,0,1,.7,1.193Z" transform="translate(-121.558 -287.246)" fill="#263238"/>
      <path id="Контур_157" data-name="Контур 157" d="M150.906,445.62a1.589,1.589,0,0,1-.236-.289c-.11-.173-.173-.331-.152-.341s.126.116.231.289S150.927,445.609,150.906,445.62Z" transform="translate(-114.717 -286.752)" fill="#263238"/>
      <path id="Контур_158" data-name="Контур 158" d="M149.809,445.209a1.207,1.207,0,0,1-.263-.184c-.131-.121-.215-.231-.2-.247s.137.063.263.179S149.83,445.188,149.809,445.209Z" transform="translate(-113.005 -286.651)" fill="#263238"/>
      <path id="Контур_159" data-name="Контур 159" d="M149.378,444.2a.824.824,0,0,1-.394.042.851.851,0,0,1-.394-.047.993.993,0,0,1,.394-.042A.867.867,0,0,1,149.378,444.2Z" transform="translate(-112.175 -286.354)" fill="#263238"/>
      <path id="Контур_160" data-name="Контур 160" d="M149.218,443.3a.819.819,0,0,1-.441.121.8.8,0,0,1-.457-.068,2.345,2.345,0,0,1,.452,0A2.441,2.441,0,0,1,149.218,443.3Z" transform="translate(-111.873 -285.951)" fill="#263238"/>
      <path id="Контур_161" data-name="Контур 161" d="M152.426,444.318a1.341,1.341,0,0,1-.483,0,2.868,2.868,0,0,1-.525-.121,1.578,1.578,0,0,1-.294-.126.242.242,0,0,1-.121-.152.2.2,0,0,1,.079-.194.9.9,0,0,1,1.1.278.968.968,0,0,1,.152.326.315.315,0,0,1,0,.131,1.538,1.538,0,0,0-.215-.415.914.914,0,0,0-.41-.278.772.772,0,0,0-.583.032c-.074.058-.047.147.037.2a1.575,1.575,0,0,0,.273.121,3.447,3.447,0,0,0,.525.137C152.248,444.3,152.426,444.3,152.426,444.318Z" transform="translate(-116.489 -286.113)" fill="#263238"/>
      <path id="Контур_162" data-name="Контур 162" d="M150.065,444.16a.468.468,0,0,1-.053-.336.841.841,0,0,1,.142-.352.489.489,0,0,1,.4-.242.189.189,0,0,1,.147.226.525.525,0,0,1-.084.215,1.245,1.245,0,0,1-.236.289.683.683,0,0,1-.278.194,3.246,3.246,0,0,0,.231-.236,1.965,1.965,0,0,0,.21-.289c.068-.1.116-.284,0-.31s-.247.105-.32.2a.846.846,0,0,0-.147.315A1.921,1.921,0,0,0,150.065,444.16Z" transform="translate(-114.249 -285.917)" fill="#263238"/>
      <path id="Контур_163" data-name="Контур 163" d="M138.368,444.173h-.557a2.369,2.369,0,0,0-2,1.544c-.121.32-.137.525-.152.525a.378.378,0,0,1,0-.152,2.225,2.225,0,0,1,.089-.4,2.306,2.306,0,0,1,2.059-1.576,1.879,1.879,0,0,1,.415,0A.406.406,0,0,1,138.368,444.173Z" transform="translate(-94.367 -286.329)" fill="#263238"/>
      <path id="Контур_164" data-name="Контур 164" d="M137.01,438.24a12.148,12.148,0,0,1,.042,1.55,12.751,12.751,0,0,1-.047,1.576,12.268,12.268,0,0,1-.042-1.576A14.112,14.112,0,0,1,137.01,438.24Z" transform="translate(-93.745 -283.549)" fill="#263238"/>
      <path id="Контур_165" data-name="Контур 165" d="M144.832,446.865a4.547,4.547,0,0,1-1.108.089,4.043,4.043,0,0,1-1.1-.105c0-.026.525,0,1.1,0A10.126,10.126,0,0,1,144.832,446.865Z" transform="translate(-104.492 -287.63)" fill="#263238"/>
      <path id="Контур_166" data-name="Контур 166" d="M140.03,446.918s-.042.105-.089.221-.084.21-.11.21-.037-.121.026-.252S140.014,446.9,140.03,446.918Z" transform="translate(-98.215 -287.667)" fill="#263238"/>
      <path id="Контур_167" data-name="Контур 167" d="M139.012,445.616a.468.468,0,0,1-.116.173c-.084.079-.158.126-.173.11s.032-.1.11-.173S138.991,445.6,139.012,445.616Z" transform="translate(-96.624 -287.048)" fill="#263238"/>
      <path id="Контур_168" data-name="Контур 168" d="M137.624,444.964a.529.529,0,0,0-.221.058c-.11.058-.189.095-.21.079s.042-.121.184-.163A.308.308,0,0,1,137.624,444.964Z" transform="translate(-94.432 -286.721)" fill="#263238"/>
      <path id="Контур_169" data-name="Контур 169" d="M136.337,444.754a.184.184,0,0,1-.095.084c-.063.021-.121.026-.131,0s.037-.063.1-.084S136.332,444.728,136.337,444.754Z" transform="translate(-92.578 -286.632)" fill="#263238"/>
      <path id="Контур_170" data-name="Контур 170" d="M88.736,435.083l-2.564-3.115,5.81-4.838,3.793,4.518-.336.326c-1.529,1.424-7.88,7.129-9.214,7.7C84.728,440.305,88.736,435.083,88.736,435.083Z" transform="translate(-25.634 -278.275)" fill="#7e57c2"/>
      <g id="Сгруппировать_1270" data-name="Сгруппировать 1270" transform="translate(67.635 151.686)" opacity="0.5">
        <path id="Контур_171" data-name="Контур 171" d="M86.347,435.924a2.627,2.627,0,0,1-.289-1.854,2.532,2.532,0,0,1,1.009-1.55l1.382,1.613Z" transform="translate(-86 -432.52)" fill="#fff"/>
      </g>
      <g id="Сгруппировать_1271" data-name="Сгруппировать 1271" transform="translate(60.26 153.252)" opacity="0.4">
        <path id="Контур_172" data-name="Контур 172" d="M86.846,441.694s-1.313,1.938-.862,2.044,7.1-5.421,9.787-8.116l-.116-.121-7.675,6.514S87.2,441.426,86.846,441.694Z" transform="translate(-85.89 -435.5)" fill="#fff"/>
      </g>
      <path id="Контур_173" data-name="Контур 173" d="M95.785,435.35l-.089.095-.273.257-1.019.925c-.862.772-2.07,1.828-3.43,2.963s-2.627,2.138-3.53,2.853l-1.093.835-.3.221-.11.074.1-.089.289-.236,1.051-.856c.909-.725,2.154-1.734,3.514-2.868s2.574-2.18,3.446-2.942l1.051-.9.284-.247Z" transform="translate(-25.67 -282.177)" fill="#263238"/>
      <path id="Контур_174" data-name="Контур 174" d="M101.883,447.608a2.815,2.815,0,0,0-.62-.341,3.578,3.578,0,0,0-.693-.105,1.147,1.147,0,0,1,1.313.447Z" transform="translate(-39.454 -287.753)" fill="#263238"/>
      <path id="Контур_175" data-name="Контур 175" d="M99.4,443.477c0,.026-.173,0-.368-.068s-.352-.131-.341-.158.173,0,.368.068a.883.883,0,0,1,.341.158Z" transform="translate(-35.983 -285.923)" fill="#263238"/>
      <path id="Контур_176" data-name="Контур 176" d="M98.826,442.417a1.134,1.134,0,0,1-.32.037c-.179-.005-.315-.032-.315-.058s.147-.042.32-.037A.7.7,0,0,1,98.826,442.417Z" transform="translate(-35.146 -285.504)" fill="#263238"/>
      <path id="Контур_177" data-name="Контур 177" d="M99.094,440.992a1.777,1.777,0,0,1-.273.289,1.05,1.05,0,0,1-.331.226,1.686,1.686,0,0,1,.273-.294C98.931,441.071,99.073,440.95,99.094,440.992Z" transform="translate(-35.572 -284.851)" fill="#263238"/>
      <path id="Контур_178" data-name="Контур 178" d="M99.556,440.057a1.093,1.093,0,0,1-.646.625,3.474,3.474,0,0,1,.326-.31C99.409,440.2,99.509,440.025,99.556,440.057Z" transform="translate(-36.255 -284.409)" fill="#263238"/>
      <path id="Контур_179" data-name="Контур 179" d="M101.223,442.882a1.325,1.325,0,0,1-.373.31,2.63,2.63,0,0,1-.473.242,1.486,1.486,0,0,1-.3.1.257.257,0,0,1-.189-.042.189.189,0,0,1-.068-.194.893.893,0,0,1,1.014-.525.815.815,0,0,1,.331.147.353.353,0,0,1,.095.089,1.4,1.4,0,0,0-.436-.173.877.877,0,0,0-.494.058.762.762,0,0,0-.42.4.122.122,0,0,0,.158.131,1.775,1.775,0,0,0,.284-.089,3.019,3.019,0,0,0,.468-.221A1.774,1.774,0,0,0,101.223,442.882Z" transform="translate(-38.426 -285.69)" fill="#263238"/>
      <path id="Контур_180" data-name="Контур 180" d="M100.182,442.279a.57.57,0,0,1-.263-.221.872.872,0,0,1-.126-.357.525.525,0,0,1,.152-.452.194.194,0,0,1,.263.079.525.525,0,0,1,.074.215,1.517,1.517,0,0,1,0,.373.693.693,0,0,1-.084.331s0-.131,0-.331a1.8,1.8,0,0,0-.032-.357c0-.121-.095-.289-.2-.231s-.116.242-.116.362a.82.82,0,0,0,.1.331,1.574,1.574,0,0,0,.236.257Z" transform="translate(-37.454 -284.966)" fill="#263238"/>
      <path id="Контур_181" data-name="Контур 181" d="M89.855,432.52a2.892,2.892,0,0,0-.415.368,2.448,2.448,0,0,0-.615,1.166,2.422,2.422,0,0,0,.105,1.313c.121.326.252.5.236.525a.494.494,0,0,1-.1-.121,1.816,1.816,0,0,1-.194-.362,2.3,2.3,0,0,1-.137-1.355,2.322,2.322,0,0,1,.657-1.193,1.985,1.985,0,0,1,.326-.257.421.421,0,0,1,.137-.084Z" transform="translate(-21.185 -280.833)" fill="#263238"/>
      <path id="Контур_182" data-name="Контур 182" d="M89.81,428.87a12.853,12.853,0,0,1,1.051,1.15,14.722,14.722,0,0,1,.977,1.208,11.554,11.554,0,0,1-1.051-1.145A15.243,15.243,0,0,1,89.81,428.87Z" transform="translate(-23.756 -279.101)" fill="#263238"/>
      <path id="Контур_183" data-name="Контур 183" d="M93.936,439.068a4.343,4.343,0,0,1-.777.788,4.139,4.139,0,0,1-.909.641s.383-.315.846-.709A8.4,8.4,0,0,1,93.936,439.068Z" transform="translate(-27.136 -283.94)" fill="#263238"/>
      <path id="Контур_184" data-name="Контур 184" d="M89.88,437.26s.037.105.068.226.079.21.058.226-.105-.063-.147-.2S89.854,437.255,89.88,437.26Z" transform="translate(-21.946 -283.083)" fill="#263238"/>
      <path id="Контур_185" data-name="Контур 185" d="M90.123,435.56c.026,0,.037.095.026.2s-.037.2-.063.2-.037-.095,0-.2S90.1,435.56,90.123,435.56Z" transform="translate(-22.204 -282.277)" fill="#263238"/>
      <path id="Контур_186" data-name="Контур 186" d="M89.6,434.115c0,.026-.068.089-.126.189s-.084.2-.11.2-.042-.121.032-.247S89.588,434.094,89.6,434.115Z" transform="translate(-21.27 -281.588)" fill="#263238"/>
      <path id="Контур_187" data-name="Контур 187" d="M88.8,433.208v.131a.1.1,0,0,1-.1.084c-.021-.01,0-.074,0-.131A.1.1,0,0,1,88.8,433.208Z" transform="translate(-20.129 -281.159)" fill="#263238"/>
      <path id="Контур_188" data-name="Контур 188" d="M105.193,281.149s2.516,10.643,1.8,12.75-5.322,3.32-5.322,3.32l.158,29.15,25.489,31.519-9.4,7.691s-27.6-31.567-30.033-37.3,1.576-47.62,1.576-47.62Z" transform="translate(-57.814 -208.749)" fill="#263238"/>
      <path id="Контур_189" data-name="Контур 189" d="M114.707,273.33l-1.245,88.527,12.96.079,6.509-72.116h0c1.376-1.313,3.315-3.562,3.047-8.578l-.315-5.826Z" transform="translate(-80.346 -205.269)" fill="#263238"/>
      <path id="Контур_190" data-name="Контур 190" d="M133.022,344a.6.6,0,0,0-.074-.131c-.068-.095-.147-.215-.247-.362l-.961-1.361-3.52-4.875v.068c.284-3.073.625-6.8.993-10.816.473-5.253.851-10.034,1.077-13.5.116-1.728.189-3.126.231-4.092,0-.462.032-.835.037-1.119a1.575,1.575,0,0,0,0-.389,2.626,2.626,0,0,0-.047.389c0,.278-.053.651-.089,1.114-.079.993-.184,2.38-.32,4.087-.273,3.451-.683,8.216-1.156,13.48-.352,4.034-.709,7.754-.946,10.843v.068l3.6,4.812,1.014,1.329.273.341C133,343.977,133.022,344.008,133.022,344Z" transform="translate(-85.002 -221.456)" fill="#455a64"/>
      <path id="Контур_191" data-name="Контур 191" d="M122.64,306.129a17.651,17.651,0,0,0,3.436-.525,17.623,17.623,0,0,0,3.352-.914,29.011,29.011,0,0,0-3.409.646A30.373,30.373,0,0,0,122.64,306.129Z" transform="translate(-78.592 -220.155)" fill="#455a64"/>
      <path id="Контур_192" data-name="Контур 192" d="M138.94,363.9a10.307,10.307,0,0,1,7.1-.562,2.858,2.858,0,0,0-1.009-.394,7.937,7.937,0,0,0-5.169.4A3.021,3.021,0,0,0,138.94,363.9Z" transform="translate(-103.77 -247.688)" fill="#455a64"/>
      <path id="Контур_193" data-name="Контур 193" d="M129.739,372.78c-.058.047,3.588,4.943,8.148,10.932s8.305,10.816,8.363,10.774-3.588-4.943-8.148-10.937S129.8,372.732,129.739,372.78Z" transform="translate(-99.145 -252.476)" fill="#455a64"/>
      <path id="Контур_194" data-name="Контур 194" d="M145.38,285.218a2.227,2.227,0,0,0,.73.967,3.619,3.619,0,0,0,5.285-.557,2.133,2.133,0,0,0,.525-1.1,10.445,10.445,0,0,1-.662.972,3.6,3.6,0,0,1-5.017.525A11.3,11.3,0,0,1,145.38,285.218Z" transform="translate(-113.031 -210.586)" fill="#455a64"/>
      <path id="Контур_195" data-name="Контур 195" d="M117.281,191.8c9.6-4.219,7.2-17.628-1.657-22.18" transform="translate(-66.49 -156.039)" fill="#263238"/>
      <path id="Контур_196" data-name="Контур 196" d="M108.533,214.85s2.816,3.183,3.4,15.355c0,0-8.022,1.523-8.169,1.087S108.533,214.85,108.533,214.85Z" transform="translate(-51.179 -177.51)" fill="#7e57c2"/>
      <g id="Сгруппировать_1272" data-name="Сгруппировать 1272" transform="translate(52.581 37.34)">
        <path id="Контур_197" data-name="Контур 197" d="M108.533,214.85s2.816,3.183,3.4,15.355c0,0-8.022,1.523-8.169,1.087S108.533,214.85,108.533,214.85Z" transform="translate(-103.76 -214.85)" fill="#5ebc6f"/>
      </g>
      <path id="Контур_198" data-name="Контур 198" d="M142.668,244.9H118.035l.4-3.851s2.816-14.635,2.795-14.83l-.441-.93a9.283,9.283,0,0,1-.11-7.749h0L108.6,213.42l2.952-9.95c5.474.919,13.748,1.954,13.748,1.954l1.229.1s8.542.447,8.726.468c3.572.436,7.727.709,9.246,4.534.814,2.044.042,5.111-1.287,8.274l-3.152,9.718c-1.261,5.343.751,5.085,1.86,10.464C142.095,239.791,142.683,244.156,142.668,244.9Z" transform="translate(-86.616 -172.108)" fill="#7e57c2"/>
      <g id="Сгруппировать_1273" data-name="Сгруппировать 1273" transform="translate(21.979 31.362)">
        <path id="Контур_199" data-name="Контур 199" d="M142.668,244.9H118.035l.4-3.851s2.816-14.635,2.795-14.83l-.441-.93a9.283,9.283,0,0,1-.11-7.749h0L108.6,213.42l2.952-9.95c5.474.919,13.748,1.954,13.748,1.954l1.229.1s8.542.447,8.726.468c3.572.436,7.727.709,9.246,4.534.814,2.044.042,5.111-1.287,8.274l-3.152,9.718c-1.261,5.343.751,5.085,1.86,10.464C142.095,239.791,142.683,244.156,142.668,244.9Z" transform="translate(-108.595 -203.47)" fill="#5ebc6f"/>
      </g>
      <path id="Контур_200" data-name="Контур 200" d="M151,222.72a2.688,2.688,0,0,0,.525.226c.347.126.856.3,1.487.525,1.261.426,3.015.988,4.949,1.607s3.677,1.234,4.885,1.739c.62.252,1.108.473,1.45.62a2.264,2.264,0,0,0,.525.21,2.625,2.625,0,0,0-.494-.31c-.331-.173-.809-.426-1.418-.7a47.836,47.836,0,0,0-4.88-1.818c-1.938-.62-3.677-1.156-4.975-1.534-.636-.189-1.156-.336-1.513-.436A2.237,2.237,0,0,0,151,222.72Z" transform="translate(-128.884 -181.246)" fill="#263238"/>
      <path id="Контур_209" data-name="Контур 209" d="M109.06,238.788a1.649,1.649,0,0,0,.221-.483l.525-1.345c.436-1.135,1.051-2.7,1.681-4.449s1.161-3.346,1.492-4.518c.163-.588.289-1.051.357-1.4a2.243,2.243,0,0,0,.089-.525,18.5,18.5,0,0,0-.63,1.865c-.378,1.156-.93,2.742-1.576,4.486s-1.213,3.32-1.576,4.476c-.194.578-.341,1.051-.436,1.376a2.1,2.1,0,0,0-.147.515Z" transform="translate(-55.456 -182.836)" fill="#263238"/>
    </g>
    <g id="freepik--Plant--inject-2" transform="translate(46.817 386.531)">
      <path id="Контур_288" data-name="Контур 288" d="M62.305,323.761c8.012-12.258,7.7-30.188-1.869-41.271-2.973-3.445-7.122-6.436-11.662-6.054s-8.377,4.38-9.793,8.813-.89,9.25-.1,13.834c1.166,6.41,3.107,12.98,7.558,17.742s10.131,10.06,15.855,6.935" transform="translate(-38.096 -276.276)" fill="#705ebc"/>
      <path id="Контур_289" data-name="Контур 289" d="M59.3,392.609a18.339,18.339,0,0,0-5.11-20.814c-1.843-1.5-4.255-2.671-6.552-2.056s-3.917,3.018-4.246,5.43a15.134,15.134,0,0,0,1.211,7.122c1.175,3.2,2.769,6.4,5.5,8.457s6.534,3.979,9.2,1.852" transform="translate(-38.674 -286.503)" fill="#705ebc"/>
      <path id="Контур_290" data-name="Контур 290" d="M82.942,387.051A26.585,26.585,0,0,1,96.3,359.062c3.062-1.585,6.819-2.528,9.9-.979s4.665,5.422,4.451,8.9-1.941,6.757-3.81,9.748c-2.608,4.193-5.822,8.261-10.282,10.371s-10.469,3.757-13.612-.053" transform="translate(-42.968 -285.155)" fill="#705ebc"/>
      <path id="Контур_291" data-name="Контур 291" d="M81.293,353.091c-3.837-12.392,2.671-27.41,13.514-34.514,3.365-2.208,7.629-3.739,11.395-2.306s6.062,5.76,6.232,9.882-1.469,8.092-3.285,11.787c-2.555,5.181-5.8,10.291-10.754,13.264s-13.033,5.938-17.1,1.887" transform="translate(-42.716 -280.591)" fill="#705ebc"/>
      <path id="Контур_292" data-name="Контур 292" d="M72.769,419.347a2.609,2.609,0,0,0,.125-.6c.071-.454.151-1.024.258-1.727.053-.383.107-.8.169-1.255l.285-1.469c.2-1.059.41-2.27.757-3.561.16-.659.329-1.344.5-2.065s.427-1.442.65-2.208c.418-1.54,1.024-3.125,1.594-4.825a84.3,84.3,0,0,1,10.977-20.475c1.095-1.415,2.083-2.8,3.143-4l1.478-1.78c.507-.534.988-1.059,1.451-1.558.89-1.006,1.78-1.852,2.555-2.6l1.068-1.05.953-.837,1.291-1.166a3.844,3.844,0,0,0,.436-.436,2.164,2.164,0,0,0-.5.347l-1.362,1.1c-.3.24-.632.507-.979.8s-.712.659-1.1,1.024c-.792.73-1.709,1.558-2.671,2.564l-1.478,1.54L90.85,376.9c-1.068,1.184-2.074,2.573-3.187,3.988a87.169,87.169,0,0,0-6.232,9.882,89.569,89.569,0,0,0-4.781,10.683c-.561,1.709-1.157,3.312-1.558,4.861-.214.774-.418,1.513-.623,2.234s-.32,1.415-.463,2.083c-.329,1.326-.516,2.537-.685,3.605-.089.534-.169,1.024-.24,1.487s-.089.89-.134,1.264q-.089,1.059-.16,1.736a2.919,2.919,0,0,0-.018.623Z" transform="translate(-41.901 -286.302)" fill="#263238"/>
      <path id="Контур_293" data-name="Контур 293" d="M72.949,417.316a.89.89,0,0,0,0-.249,3.667,3.667,0,0,0-.053-.712c-.062-.677-.151-1.594-.258-2.76-.053-.6-.125-1.264-.2-1.985s-.071-1.513-.116-2.368c-.062-1.7-.231-3.641-.169-5.778V400.1c0-1.166.125-2.386.178-3.641.089-2.519.427-5.2.73-8.012a126.9,126.9,0,0,1,3.8-18.009,125.575,125.575,0,0,1,6.686-17.181c1.273-2.519,2.448-4.95,3.748-7.122.641-1.086,1.211-2.163,1.834-3.151l1.78-2.822c1.122-1.834,2.315-3.365,3.294-4.763.5-.685.953-1.344,1.4-1.923l1.246-1.558,1.709-2.163.436-.579c.1-.125.142-.2.134-.2s-.062.053-.178.169l-.472.543-1.78,2.11-1.291,1.531c-.454.57-.89,1.22-1.424,1.905-1.006,1.38-2.226,2.9-3.365,4.718l-1.861,2.822c-.632.988-1.22,2.065-1.861,3.151-1.326,2.154-2.519,4.585-3.81,7.122a120.588,120.588,0,0,0-6.659,17.244,122.106,122.106,0,0,0-3.784,18.1c-.285,2.831-.614,5.519-.677,8.012-.053,1.264-.151,2.484-.16,3.659s0,2.3,0,3.374c0,2.154.16,4.1.249,5.8.053.89.089,1.647.16,2.377s.169,1.38.24,1.985c.151,1.157.267,2.074.356,2.742a4.191,4.191,0,0,0,.107.712A.89.89,0,0,0,72.949,417.316Z" transform="translate(-41.797 -282.046)" fill="#263238"/>
      <path id="Контур_294" data-name="Контур 294" d="M49.639,293.08a.891.891,0,0,0,.107.231l.338.641,1.371,2.448c.294.534.65,1.1.988,1.78l1.077,2.145,1.237,2.475c.418.89.81,1.843,1.255,2.831s.89,2.039,1.353,3.134L58.7,312.22c.231.6.463,1.2.694,1.825l.65,1.905,1.344,3.979c1.691,5.493,3.3,11.618,4.665,18.116s2.243,12.775,2.92,18.481,1.024,10.9,1.139,15.25c.107,2.172.134,4.14.142,5.867s0,3.223,0,4.451l-.045,2.8v.73a.748.748,0,0,0,0,.249.89.89,0,0,0,0-.24v-.73c0-.685.08-1.62.142-2.8s.1-2.671.1-4.451,0-3.7-.062-5.884c-.071-4.362-.472-9.543-1.033-15.285a186.87,186.87,0,0,0-2.884-18.535A176.817,176.817,0,0,0,61.746,319.8q-.694-2.056-1.362-3.988c-.223-.65-.445-1.282-.659-1.914s-.481-1.22-.721-1.78c-.463-1.193-.89-2.35-1.362-3.454s-.944-2.137-1.389-3.134-.89-1.941-1.291-2.822l-1.282-2.466c-.4-.766-.766-1.487-1.113-2.145s-.721-1.229-1.033-1.78c-.614-1.006-1.1-1.78-1.451-2.395-.16-.249-.294-.454-.392-.623S49.648,293.071,49.639,293.08Z" transform="translate(-39.363 -278.106)" fill="#263238"/>
      <path id="Контур_295" data-name="Контур 295" d="M52.7,377.6a10.827,10.827,0,0,0,.89,1.5c.588.944,1.389,2.324,2.332,4.059s1.985,3.846,3.036,6.232a76.925,76.925,0,0,1,2.947,7.959,83.55,83.55,0,0,1,2.021,8.208c.481,2.564.819,4.887,1.006,6.855s.32,3.561.365,4.665a10.415,10.415,0,0,0,.134,1.745,11.377,11.377,0,0,0,.062-1.718,45.415,45.415,0,0,0-.2-4.7c-.2-1.985-.445-4.326-.89-6.908a80.007,80.007,0,0,0-2.03-8.306,77.386,77.386,0,0,0-3.009-8.012,68.7,68.7,0,0,0-3.151-6.232c-1-1.718-1.852-3.08-2.493-3.988A12.312,12.312,0,0,0,52.7,377.6Z" transform="translate(-39.699 -287.384)" fill="#263238"/>
      <path id="Контур_296" data-name="Контур 296" d="M86.118,419.51H50.9l4.255,35.974H81.729Z" transform="translate(-39.502 -291.984)" fill="#1a2d47"/>
      <path id="Контур_297" data-name="Контур 297" d="M84.973,455.55l-2.991,3.89H55.3l-3.071-3.766Z" transform="translate(-39.648 -295.94)" fill="#576271"/>
      <path id="Контур_301" data-name="Контур 301" d="M84.409,332.43a1.389,1.389,0,0,0,0,.338,4.584,4.584,0,0,0,.08.979c.089.89.214,2.11.356,3.561.329,3.018.792,7.193,1.335,11.8a1.421,1.421,0,0,0,.062.516v.151h.151c4.522.062,8.6.107,11.573.125h4.754a1.988,1.988,0,0,0-.329,0l-.944-.044-3.472-.116c-2.947-.08-7.015-.16-11.573-.231l.169.151-.053-.516c-.543-4.6-1.05-8.778-1.433-11.8-.2-1.46-.356-2.671-.481-3.561-.053-.383-.107-.7-.142-.97A1.219,1.219,0,0,0,84.409,332.43Z" transform="translate(-43.179 -282.426)" fill="#263238"/>
      <path id="Контур_302" data-name="Контур 302" d="M93.41,320.35v5.074c0,3.134.125,7.46.24,12.241v.748h.187a108.708,108.708,0,0,1,11.849-.267c1.5.045,2.724.107,3.561.151l.961.044a1,1,0,0,0,.347,0,1.325,1.325,0,0,0-.338-.062c-.223,0-.543-.071-.961-.107-.846-.089-2.056-.187-3.561-.267a92.684,92.684,0,0,0-11.885.16l.2.169v-.561c-.116-4.781-.24-9.107-.347-12.241-.062-1.531-.116-2.778-.151-3.712l-.053-1.006a1.505,1.505,0,0,0-.045-.365Z" transform="translate(-44.168 -281.1)" fill="#263238"/>
      <path id="Контур_303" data-name="Контур 303" d="M103.567,316.23a6.1,6.1,0,0,0-.223,1.033c-.134.73-.312,1.683-.525,2.831-.454,2.386-1.166,5.689-2.172,9.294l-.107.374.356-.169.427-.2a30.1,30.1,0,0,1,9.419-2.742c1.246-.16,2.27-.214,2.973-.24a7.731,7.731,0,0,0,1.095-.062.889.889,0,0,0-.285,0h-.81a24.7,24.7,0,0,0-3,.125,28.487,28.487,0,0,0-9.517,2.671l-.427.2.249.2a89.916,89.916,0,0,0,2.083-9.339c.2-1.2.329-2.181.41-2.858A7.018,7.018,0,0,0,103.567,316.23Z" transform="translate(-44.951 -280.647)" fill="#263238"/>
      <path id="Контур_304" data-name="Контур 304" d="M48.07,388.978c0,.053,1.024-.053,2.671-.116a43.855,43.855,0,0,1,6.41.214l1.469.178h.169v-.16c.374-2.128.694-4.006.89-5.341a14.565,14.565,0,0,0,.276-2.172,14.414,14.414,0,0,0-.463,2.154c-.267,1.335-.632,3.2-1.024,5.341l.2-.142c-.481-.071-.979-.134-1.487-.187a35.655,35.655,0,0,0-6.454-.107c-.828.062-1.5.142-1.95.214A2.59,2.59,0,0,0,48.07,388.978Z" transform="translate(-39.191 -287.821)" fill="#263238"/>
      <path id="Контур_305" data-name="Контур 305" d="M44.33,381.452c0,.053.988-.178,2.582-.374a27.972,27.972,0,0,1,6.232-.062,8.523,8.523,0,0,1,1.1.134h.187v-.178c.223-2.19.4-4.131.516-5.528a16.54,16.54,0,0,0,.116-2.243,14.92,14.92,0,0,0-.356,2.226c-.169,1.38-.392,3.321-.632,5.511l.2-.16-1.122-.142a24.559,24.559,0,0,0-6.321.169c-.8.134-1.433.276-1.878.392a2.581,2.581,0,0,0-.632.258Z" transform="translate(-38.781 -286.901)" fill="#263238"/>
      <path id="Контур_306" data-name="Контур 306" d="M41.65,310.976a2.031,2.031,0,0,0,.356.178l1.024.463,3.81,1.62,12.615,5.226.685.276.16.071.071-.16,5.341-12.036,1.576-3.641c.16-.41.294-.73.41-1a1.479,1.479,0,0,0,.116-.356,1.682,1.682,0,0,0-.187.329l-.463.961-1.674,3.561c-1.4,3.1-3.312,7.309-5.43,12l.231-.1-.685-.276-12.65-5.128L43.1,311.448l-1.05-.392a1.7,1.7,0,0,0-.4-.08Z" transform="translate(-38.487 -279.044)" fill="#263238"/>
      <path id="Контур_307" data-name="Контур 307" d="M38.19,293.883a1.488,1.488,0,0,0,.312.231l.89.6,3.445,2.137,11.466,7,.187.116.071-.2.214-.552,4.807-12.971L61,286.289c.151-.445.276-.8.365-1.086a1.291,1.291,0,0,0,.107-.383,2.066,2.066,0,0,0-.169.365l-.436,1.05c-.374.97-.89,2.3-1.522,3.908-1.273,3.347-3,7.905-4.905,12.935-.071.187-.142.374-.2.552l.258-.089-11.573-6.9c-1.442-.89-2.626-1.54-3.5-2.048l-.953-.543a1.44,1.44,0,0,0-.276-.169Z" transform="translate(-38.107 -277.2)" fill="#263238"/>
      <path id="Контур_308" data-name="Контур 308" d="M39.32,284.86a4.4,4.4,0,0,0,.757.445c.5.276,1.211.677,2.083,1.22a36.874,36.874,0,0,1,6.383,4.994l.436.427-.142-.6c-.151-.632-.294-1.3-.41-1.976a23.048,23.048,0,0,1,.5-9.392,24.579,24.579,0,0,1,.89-2.724,6.885,6.885,0,0,0,.374-1,6.061,6.061,0,0,0-.507.944,20.389,20.389,0,0,0-1.015,2.715,22.024,22.024,0,0,0-.605,9.508c.107.694.258,1.371.418,2.012l.294-.169a33.88,33.88,0,0,0-6.516-4.95c-.89-.516-1.62-.89-2.137-1.122a4.494,4.494,0,0,0-.8-.338Z" transform="translate(-38.231 -276.26)" fill="#263238"/>
      <path id="Контур_309" data-name="Контур 309" d="M84.47,374.62a4.5,4.5,0,0,0,.16.89c.125.579.294,1.424.49,2.475a60.438,60.438,0,0,1,.944,8.341v.2h.16l.792.044c3.49.214,6.65.383,8.9.49l2.715.107a5.084,5.084,0,0,0,1,0,5.053,5.053,0,0,0-.988-.134l-2.671-.214c-2.288-.178-5.448-.383-8.9-.6l-.792-.044.169.169a50.833,50.833,0,0,0-1.059-8.377c-.223-1.042-.436-1.887-.605-2.457a5.592,5.592,0,0,0-.312-.9Z" transform="translate(-43.187 -287.057)" fill="#263238"/>
      <path id="Контур_310" data-name="Контур 310" d="M92.24,363.48a4.718,4.718,0,0,0,.053.89c.08.65.178,1.5.285,2.5.258,2.119.641,5.065,1.086,8.359v.142h.142l1.14.08c3.561.24,6.8.605,9.134.89l2.76.365a5.662,5.662,0,0,0,1.015.107,4.551,4.551,0,0,0-1-.24c-.641-.134-1.576-.3-2.742-.481-2.324-.374-5.564-.783-9.152-1.024L93.833,375l.16.151c-.454-3.3-.89-6.232-1.193-8.35-.16-1-.285-1.834-.392-2.484a4.986,4.986,0,0,0-.169-.837Z" transform="translate(-44.039 -285.834)" fill="#263238"/>
      <path id="Контур_311" data-name="Контур 311" d="M101.389,358.68c-.053,0,.16.97.409,2.537a44.006,44.006,0,0,1,.57,6.232v.2h.2l.588-.08a54.664,54.664,0,0,1,6.65-.392h2.03a3.011,3.011,0,0,0,.739,0,3.474,3.474,0,0,0-.73-.116c-.481-.053-1.175-.107-2.03-.133a42.077,42.077,0,0,0-6.7.285l-.6.08.2.169a37.063,37.063,0,0,0-.677-6.232c-.16-.783-.312-1.406-.436-1.834a2.484,2.484,0,0,0-.214-.712Z" transform="translate(-45.043 -285.307)" fill="#263238"/>
      <path id="Контур_312" data-name="Контур 312" d="M49.27,369.82a31.036,31.036,0,0,0,1.576,3.561,30.5,30.5,0,0,0,1.691,3.561,16.514,16.514,0,0,0-1.371-3.668,17.048,17.048,0,0,0-1.9-3.454Z" transform="translate(-39.323 -286.53)" fill="#263238"/>
      <path id="Контур_313" data-name="Контур 313" d="M44.3,375.083a37.969,37.969,0,0,1,4,.81,38.115,38.115,0,0,1,3.748,1.594,9.187,9.187,0,0,0-3.659-1.932,9.258,9.258,0,0,0-4.086-.472Z" transform="translate(-38.777 -287.102)" fill="#263238"/>
    </g>
    <path id="ic_Do_not_disturb_active" data-name="ic_Do not disturb_active" d="M271.213,44.9c-.126-.14-.245-.285-.38-.419a10.9,10.9,0,0,0-.905-.806A159.55,159.55,0,0,0,160.143,0C71.842,0,0,71.839,0,160.144A159.553,159.553,0,0,0,43.642,269.885a10.564,10.564,0,0,0,.835.945c.156.155.321.292.483.437a159.675,159.675,0,0,0,115.184,49.009c88.3,0,160.134-71.835,160.134-160.134A159.692,159.692,0,0,0,271.213,44.9ZM160.143,21.9a137.566,137.566,0,0,1,86.931,30.845L52.752,247.067a137.582,137.582,0,0,1-30.844-86.925C21.907,83.918,83.92,21.9,160.143,21.9Zm0,276.468a137.681,137.681,0,0,1-92.3-35.423l195.11-195.1a137.688,137.688,0,0,1,35.416,92.3C298.373,236.362,236.363,298.372,160.143,298.372Z" transform="translate(8.997 245.475)" fill="#ff6b4d"/>
  </g>
</svg>
