<svg xmlns="http://www.w3.org/2000/svg" width="56.949" height="56.95" viewBox="0 0 56.949 56.95">
	<defs>
		<style>.a{fill:#705ebc;}</style>
	</defs>
	<g transform="translate(-200.189 -0.019)">
		<g transform="translate(200.189 0.019)">
			<path class="a" d="M1093.634,14.407a30.256,30.256,0,0,1,22.259,9.238,30.249,30.249,0,0,1,9.188,22.234,30.2,30.2,0,0,1-6.708,19.458,32.949,32.949,0,0,0,2.8-2.506,30.349,30.349,0,0,0,9.238-22.259,30.345,30.345,0,0,0-9.189-22.234,31.436,31.436,0,0,0-44.518,0,33.065,33.065,0,0,0-2.506,2.8A30.1,30.1,0,0,1,1093.634,14.407Z" transform="translate(-1073.463 -9.1)"/>
			<path class="a" d="M1086.975,60.3a25.375,25.375,0,0,1,25.379,25.379,24.344,24.344,0,0,1-5.405,15.675,28.862,28.862,0,0,0,2.26-2.015,25.387,25.387,0,0,0,.025-35.895A25.452,25.452,0,0,0,1071.3,65.7,24.208,24.208,0,0,1,1086.975,60.3Z" transform="translate(-1071.276 -44.477)"/>
			<path class="a" d="M1082.723,108.369a18.653,18.653,0,0,1,14.667,30.17c.565-.467,1.13-.958,1.671-1.5a18.641,18.641,0,1,0-26.362-26.362,19.2,19.2,0,0,0-1.5,1.671A17.8,17.8,0,0,1,1082.723,108.369Z" transform="translate(-1071.2 -81.59)"/>
			<path class="a" d="M1093.838,164.994a10.4,10.4,0,1,0-3.071,7.3A9.849,9.849,0,0,0,1093.838,164.994Z" transform="translate(-1072.709 -118.928)"/>
		</g>
	</g>
</svg>