<svg xmlns="http://www.w3.org/2000/svg" xmlns:xlink="http://www.w3.org/1999/xlink" width="373.477" height="375.004" viewBox="0 0 373.477 375.004"><defs><style>.a,.b,.k{fill:#494089;}.a{opacity:0.55;}.c,.j{fill:#90c9ea;}.c,.e,.f,.i,.k,.l{fill-rule:evenodd;}.d{fill:#abc3ff;}.e{fill:#79a1f2;}.f{fill:#618de5;}.g,.l{fill:#fff;}.h{fill:#7b91ff;}.i{fill:#80c3ff;}.m,.n{fill:#f8f8f8;font-family:Roboto-Medium, Roboto;font-weight:500;}.m{font-size:36px;letter-spacing:0.12em;}.n{font-size:19px;letter-spacing:0.054em;}.o{filter:url(#c);}.p{filter:url(#a);}</style><filter id="a" x="11" y="0" width="362.477" height="339.004" filterUnits="userSpaceOnUse"><feOffset dy="3" input="SourceAlpha"/><feGaussianBlur stdDeviation="3" result="b"/><feFlood flood-opacity="0.161"/><feComposite operator="in" in2="b"/><feComposite in="SourceGraphic"/></filter><filter id="c" x="0" y="52.713" width="362.477" height="322.291" filterUnits="userSpaceOnUse"><feOffset dy="3" input="SourceAlpha"/><feGaussianBlur stdDeviation="3" result="d"/><feFlood flood-opacity="0.161"/><feComposite operator="in" in2="d"/><feComposite in="SourceGraphic"/></filter></defs><g transform="translate(-40.017 -16.652)"><g class="p" transform="matrix(1, 0, 0, 1, 40.02, 16.65)"><path class="a" d="M90.379,187.813c-15.252,8.058-32.916,20.607-35.742,46.431-1.842,16.825,4.129,34.437,13.119,43.129,4.388,4.243,9.776,7.229,12.071,14.679,3.567,11.576-2.842,24.851-9.612,31.581S55.191,335.7,52.11,347.648c-2.031,7.872-1.235,17.041.776,24.927,7.373,28.92,28.872,41.585,47.991,40.039s37.253-13.74,56.008-20.019c64.4-21.559,131.931,27.375,196.226,4.95,10.005-3.49,20.083-8.952,27.81-19.924,8.71-12.368,13.655-31.029,14.4-49.865.712-17.97-3.18-38.2-13-46.3-5.741-4.734-12.6-4.539-18.836-1.966-3.98,1.644-7.891,4.219-12,4.263s-8.622-3.323-9.811-9.756c-1.251-6.763,1.6-13.745,4.868-18.359,6.649-9.385,15.54-14.073,21.578-24.5,5.81-10.038,8.256-25,6.284-38.449s-8.3-24.962-16.262-29.588c-20.29-11.79-42.4,20.352-63.142,10.935a6.891,6.891,0,0,1-3.972-4.032,14.987,14.987,0,0,1-.157-7.437c2.542-13.677,12.414-22.383,12.847-36.662a34.9,34.9,0,0,0-6.1-20.215c-24.279-35.665-59.459,6.759-84.214,20.151C172.693,147.854,131.2,166.247,90.379,187.813Z" transform="translate(-30.93 -85.74)"/></g><g class="o" transform="matrix(1, 0, 0, 1, 40.02, 16.65)"><path class="b" d="M90.379,182.811c-15.252,7.638-32.916,19.534-35.742,44.013-1.842,15.949,4.129,32.644,13.119,40.884,4.388,4.023,9.776,6.853,12.071,13.915,3.567,10.973-2.842,23.557-9.612,29.937S55.191,323,52.11,334.324c-2.031,7.462-1.235,16.153.776,23.629,7.373,27.414,28.872,39.42,47.991,37.954s37.253-13.025,56.008-18.977c64.4-20.436,131.931,25.949,196.226,4.693,10.005-3.308,20.083-8.486,27.81-18.887,8.71-11.724,13.655-29.413,14.4-47.269.712-17.034-3.18-36.215-13-43.891-5.741-4.487-12.6-4.3-18.836-1.864-3.98,1.559-7.891,4-12,4.041s-8.622-3.15-9.811-9.248c-1.251-6.411,1.6-13.029,4.868-17.4,6.649-8.9,15.54-13.34,21.578-23.229,5.81-9.515,8.256-23.7,6.284-36.447s-8.3-23.663-16.262-28.048c-20.29-11.176-42.4,19.292-63.142,10.365a6.725,6.725,0,0,1-3.972-3.822,13.492,13.492,0,0,1-.157-7.05c2.542-12.965,12.414-21.218,12.847-34.753a31.884,31.884,0,0,0-6.1-19.162c-24.279-33.808-59.459,6.407-84.214,19.1C172.693,144.932,131.2,162.367,90.379,182.811Z" transform="translate(-41.93 -33.02)"/></g><path class="c" d="M270.905,295.811c-.394,2.988-5.022,4.841-10.337,4.14s-9.3-3.69-8.911-6.677,5.022-4.841,10.338-4.14S271.3,292.824,270.905,295.811Z" transform="translate(-27.446 65.304)"/><g transform="translate(147.309 164.581)"><circle class="d" cx="11.006" cy="11.006" r="11.006" transform="translate(7.351)"/><path class="e" d="M182.99,146.837a10.95,10.95,0,0,0-5.383,1.411,1.879,1.879,0,0,0,.269.362c1.112,1.122,3.762,1.171,5.241,1.24a18.041,18.041,0,0,0,6.405-.85A10.938,10.938,0,0,0,182.99,146.837Z" transform="translate(-164.633 -146.837)"/><path class="e" d="M190.516,153.366a5.878,5.878,0,0,0,1.064-.452,11.044,11.044,0,0,0-.952-1.381l-3.293,1.474a17.057,17.057,0,0,1-2.611,1,15.608,15.608,0,0,1-4.1.359,83,83,0,0,1-8.46-.6,10.906,10.906,0,0,0-.823,7.052,9.892,9.892,0,0,0,1.62-.943,21.821,21.821,0,0,1,4.565-1.99Z" transform="translate(-163.742 -147.479)"/><path class="e" d="M194.171,154.561c-.852.761-1.484,1.772-2.415,2.5a12.943,12.943,0,0,1-3.222,1.844c-.816.319-1.666.558-2.448.954a1.129,1.129,0,0,0-.669.668c-.126.562.535.967,1.1,1.1a12.644,12.644,0,0,0,3.418.162l4.067-.176c.241-.01.488-.03.731-.06a10.868,10.868,0,0,0-.557-6.989Z" transform="translate(-165.698 -147.893)"/><path class="e" d="M182.47,159.242a25.555,25.555,0,0,0-5.683,1.853,29.1,29.1,0,0,1-3.658,1.6,6.431,6.431,0,0,1-1.436.179,11.02,11.02,0,0,0,3.5,5.163c.113-.135.224-.271.328-.411,1.646-2.187,2.764-4.945,5.141-6.3a7.609,7.609,0,0,0,1.276-.768A1.4,1.4,0,0,0,182.47,159.242Z" transform="translate(-163.824 -148.533)"/><path class="e" d="M193.031,165.032a2.284,2.284,0,0,0-.366-.012l-7.049.391A6.116,6.116,0,0,0,179.254,169c-.2.325-.565.775-.9,1.253a10.929,10.929,0,0,0,4.455,1.07c.287-.361.548-.75.827-1.119a9.691,9.691,0,0,1,6.622-3.746c.688-.073,1.383-.075,2.069-.148A10.849,10.849,0,0,0,193.031,165.032Z" transform="translate(-164.734 -149.323)"/><path class="f" d="M192.5,164.324a10.968,10.968,0,0,0,.656-2.048,73.3,73.3,0,0,1-19.881,3.835,11.09,11.09,0,0,0,1.378,1.659,76.763,76.763,0,0,0,17.848-3.445Z" transform="translate(-164.04 -148.948)"/><g transform="translate(0 5.744)"><path class="g" d="M170.141,165.8c-3.944,0-7.162-.628-7.53-2.525-.345-1.786,1.987-3.641,6.935-5.512a.863.863,0,1,1,.61,1.615c-5.01,1.895-5.9,3.318-5.85,3.569.183.944,6.4,2.038,17.627-.137a60.753,60.753,0,0,0,12.223-3.563c3.629-1.587,4.221-2.684,4.181-2.892-.05-.261-1.471-1.28-7.113-1.117a.863.863,0,0,1-.051-1.726c5.519-.165,8.5.684,8.86,2.515.3,1.574-1.391,3.144-5.185,4.8a62.5,62.5,0,0,1-12.586,3.677A69.53,69.53,0,0,1,170.141,165.8Z" transform="translate(-162.577 -153.491)"/></g></g><g transform="translate(325.607 196.676)"><circle class="h" cx="8.866" cy="8.866" r="8.866" transform="translate(0 3.354) rotate(-10.903)"/><path class="i" d="M385.347,174.137a8.824,8.824,0,0,0-4.354-1.064,1.477,1.477,0,0,0,.052.36c.357,1.221,2.216,2.271,3.236,2.888a14.541,14.541,0,0,0,4.864,1.853A8.815,8.815,0,0,0,385.347,174.137Z" transform="translate(-370.744 -171.551)"/><path class="i" d="M387.725,181.806a4.8,4.8,0,0,0,.926.087,8.855,8.855,0,0,0-.144-1.344l-2.9-.218a13.871,13.871,0,0,1-2.235-.292,12.616,12.616,0,0,1-3.039-1.316,66.945,66.945,0,0,1-5.761-3.671,8.774,8.774,0,0,0-3.286,4.68,8.034,8.034,0,0,0,1.509-.046,17.505,17.505,0,0,1,4,.34Z" transform="translate(-369.417 -171.822)"/><path class="i" d="M390.012,184.271c-.9.212-1.732.686-2.669.844a10.426,10.426,0,0,1-2.99.07c-.7-.086-1.4-.243-2.1-.262a.909.909,0,0,0-.729.217c-.306.35.008.89.355,1.2a10.2,10.2,0,0,0,2.359,1.425l2.948,1.435c.175.085.357.166.541.238a8.759,8.759,0,0,0,2.286-5.164Z" transform="translate(-370.799 -173.083)"/><path class="i" d="M380.061,182.975a20.542,20.542,0,0,0-4.736-.866,23.49,23.49,0,0,1-3.205-.268,5.234,5.234,0,0,1-1.086-.425,8.88,8.88,0,0,0,.5,5c.132-.052.262-.106.39-.165,2-.919,3.854-2.443,6.059-2.494a6.228,6.228,0,0,0,1.2-.055A1.128,1.128,0,0,0,380.061,182.975Z" transform="translate(-369.36 -172.693)"/><path class="i" d="M385.251,191.059a1.849,1.849,0,0,0-.255-.149l-5.144-2.426a4.926,4.926,0,0,0-5.883.1c-.267.153-.7.332-1.12.541a8.8,8.8,0,0,0,2.746,2.466c.342-.145.676-.321,1.015-.476a7.814,7.814,0,0,1,6.127-.114c.515.212,1.007.477,1.522.689A8.881,8.881,0,0,0,385.251,191.059Z" transform="translate(-369.63 -173.534)"/></g><g transform="translate(173.271 328.807)"><ellipse class="j" cx="13.596" cy="6.043" rx="13.596" ry="6.043" transform="matrix(0.892, -0.453, 0.453, 0.892, 0, 12.309)"/><path class="k" d="M206.023,268.742c6.048-3.07,12.047-3.638,14.267-1.528a3.092,3.092,0,0,0-.271-1.828c-1.511-2.976-8.163-2.633-14.859.767s-10.9,8.567-9.388,11.543a2.861,2.861,0,0,0,.592.761C196.749,275.478,200.552,271.52,206.023,268.742Z" transform="translate(-193.037 -259.998)"/></g><g transform="translate(266.371 316.53)"><path class="c" d="M316.274,275.868c-1.188,1.9-5.615,1.272-9.889-1.4s-6.776-6.379-5.589-8.279,5.615-1.273,9.889,1.4S317.462,273.968,316.274,275.868Z" transform="translate(-300.501 -265.091)"/><path class="k" d="M309.506,268.983c3.86,2.414,6.265,5.666,5.821,7.674a2.078,2.078,0,0,0,.957-.789c1.188-1.9-1.314-5.606-5.589-8.279s-8.7-3.3-9.889-1.4a1.9,1.9,0,0,0-.232.6C302.42,265.983,306.012,266.8,309.506,268.983Z" transform="translate(-300.511 -265.091)"/></g><path class="k" d="M262,289.134c-5.316-.7-9.944,1.152-10.338,4.14a3.133,3.133,0,0,0-.011.648c1.154-2.411,5.324-3.8,10.043-3.182,4.93.65,8.714,3.269,8.923,6.029a3.175,3.175,0,0,0,.294-.958C271.3,292.824,267.311,289.834,262,289.134Z" transform="translate(-27.447 65.304)"/><circle class="j" cx="2.806" cy="2.806" r="2.806" transform="translate(99.647 231.225)"/><path class="c" d="M299.291,114.355a1.259,1.259,0,1,1,1.258-1.259A1.259,1.259,0,0,1,299.291,114.355Z" transform="translate(-33.792 -2.749)"/><circle class="j" cx="1.258" cy="1.258" r="1.258" transform="translate(282.081 151.879)"/><circle class="j" cx="1.258" cy="1.258" r="1.258" transform="translate(71.844 212.422)"/><path class="l" d="M284.606,165.707a1.62,1.62,0,1,1-1.62-1.62A1.62,1.62,0,0,1,284.606,165.707Z" transform="translate(-31.513 20.061)"/><path class="l" d="M363.479,251.957a1.62,1.62,0,1,1-1.62-1.62A1.621,1.621,0,0,1,363.479,251.957Z" transform="translate(-42.299 43.976)"/><path class="l" d="M418.856,255.08a1.62,1.62,0,1,1-1.62-1.62A1.62,1.62,0,0,1,418.856,255.08Z" transform="translate(-49.871 44.842)"/><path class="l" d="M123.479,282.457a1.62,1.62,0,1,1-1.62-1.62A1.62,1.62,0,0,1,123.479,282.457Z" transform="translate(-9.478 66.419)"/><path class="l" d="M231.856,146.58a1.62,1.62,0,1,1-1.62-1.62A1.62,1.62,0,0,1,231.856,146.58Z" transform="translate(-24.299 14.758)"/><path class="l" d="M327.01,165.889l1.41.806-1.439.753-.806,1.41-.753-1.439-1.41-.806,1.439-.753.806-1.41Z" transform="translate(-37.345 20.346)"/><path class="l" d="M134.174,244.3l1.41.806-1.439.753-.806,1.41-.753-1.439-1.41-.806,1.439-.753.806-1.41Z" transform="translate(-10.974 42.286)"/><path class="l" d="M135.108,177.671l1.41.806-1.439.753-.806,1.41-.753-1.439-1.41-.806,1.439-.753.806-1.41Z" transform="translate(-11.102 23.642)"/><path class="l" d="M85.14,277.109l1.41.806-1.439.753-.806,1.41-.753-1.44-1.41-.806,1.439-.753.806-1.41Z" transform="translate(-4.269 67.125)"/><path class="l" d="M402.14,296.775l1.41.806-1.439.753-.806,1.41-.753-1.439-1.41-.806,1.439-.753.806-1.41Z" transform="translate(-47.619 64.436)"/><text class="m" transform="translate(163.253 233.215)"><tspan x="0" y="0">OOPS!</tspan></text><text class="n" transform="translate(106.253 273.215)"><tspan x="0" y="0">Something went wrong...</tspan></text></g></svg>