<svg xmlns="http://www.w3.org/2000/svg" width="40" height="40" viewBox="0 0 40 40">
  <path id="ic_Do_not_disturb_active" data-name="ic_Do not disturb_active" d="M33.875,5.607c-.016-.018-.031-.036-.047-.052a1.361,1.361,0,0,0-.113-.1A19.989,19.989,0,0,0,5.453,33.707a1.32,1.32,0,0,0,.1.118c.02.019.04.036.06.055A19.99,19.99,0,1,0,33.875,5.607ZM20,2.736A17.181,17.181,0,0,1,30.86,6.588L6.591,30.857A17.254,17.254,0,0,1,20,2.736Zm0,34.529A17.2,17.2,0,0,1,8.476,32.84L32.844,8.473A17.255,17.255,0,0,1,20,37.264Z" transform="translate(-0.003)" fill="#ff6b4d"/>
</svg>
