<svg xmlns="http://www.w3.org/2000/svg" width="44" height="42" viewBox="0 0 44 42">
  <g id="ic_In-room_dining" data-name="ic_In-room dining" transform="translate(2 0.018)">
    <g id="Group_31" data-name="Group 31" transform="translate(14.137 3.164)">
      <g id="Group_30" data-name="Group 30">
        <rect id="Rectangle_1" data-name="Rectangle 1" width="2.354" height="6.669" fill="#705ebc"/>
      </g>
    </g>
    <g id="Group_33" data-name="Group 33" transform="translate(23.509 3.164)">
      <g id="Group_32" data-name="Group 32">
        <rect id="Rectangle_2" data-name="Rectangle 2" width="2.354" height="6.669" fill="#705ebc"/>
      </g>
    </g>
    <g id="Group_35" data-name="Group 35" transform="translate(18.403 -0.018)">
      <g id="Group_34" data-name="Group 34" transform="translate(0)">
        <rect id="Rectangle_3" data-name="Rectangle 3" width="3" height="8" fill="#705ebc"/>
      </g>
    </g>
    <g id="Group_37" data-name="Group 37" transform="translate(3.135 14.981)">
      <g id="Group_36" data-name="Group 36">
        <g id="Path_25" data-name="Path 25" transform="translate(-39.961 -191.474)" fill="none">
          <path d="M68.78,199.2A16.743,16.743,0,0,0,58,194.261v-2.787H55.655v2.787a16.948,16.948,0,0,0-15.694,15.772h33.73A16.9,16.9,0,0,0,68.78,199.2Z" stroke="none"/>
          <path d="M 55.6549186706543 191.4740142822266 L 55.6549186706543 194.2606506347656 C 51.58028793334961 194.5390014648438 47.78739166259766 196.2661743164063 44.87192535400391 199.1961975097656 C 41.95653533935547 202.1262359619141 40.23796081542969 205.9380187988281 39.96099853515625 210.0330200195313 L 73.69075775146484 210.0330200195313 C 73.41380310058594 205.9380187988281 71.69520568847656 202.1260681152344 68.77975463867188 199.1961212158203 C 65.86430358886719 196.2661743164063 62.07146835327148 194.5390014648438 57.9968376159668 194.2606506347656 L 57.9968376159668 191.4740142822266 L 55.6549186706543 191.4740142822266 M 53.6549186706543 189.4740142822266 L 55.6549186706543 189.4740142822266 L 57.9968376159668 189.4740142822266 L 59.9968376159668 189.4740142822266 L 59.9968376159668 191.4740142822266 L 59.9968376159668 192.4851379394531 C 61.60665130615234 192.7565002441406 63.16689300537109 193.2350921630859 64.65444946289063 193.9150543212891 C 66.71367645263672 194.8563385009766 68.57861328125 196.1585235595703 70.19746398925781 197.7854156494141 C 71.81572723388672 199.4117126464844 73.11081695556641 201.2849426269531 74.04678344726563 203.3530578613281 C 74.98042297363281 205.4160461425781 75.53199768066406 207.6180877685547 75.68620300292969 209.8980560302734 L 75.83059692382813 212.0330200195313 L 73.69075775146484 212.0330200195313 L 39.96099853515625 212.0330200195313 L 37.82115936279297 212.0330200195313 L 37.96556091308594 209.8980560302734 C 38.11975860595703 207.6181182861328 38.67134094238281 205.4160766601563 39.60496520996094 203.3531341552734 C 40.54090118408203 201.2850952148438 41.83596038818359 199.4118957519531 43.45417785644531 197.7855377197266 C 45.07303619384766 196.1585845947266 46.93799591064453 194.8563690185547 48.99726867675781 193.9150695800781 C 50.48482894897461 193.2350921630859 52.04509735107422 192.7565002441406 53.6549186706543 192.4851379394531 L 53.6549186706543 191.4740142822266 L 53.6549186706543 189.4740142822266 Z" stroke="none" fill="#705ebc"/>
        </g>
      </g>
    </g>
    <g id="Group_39" data-name="Group 39" transform="translate(0 35.756)">
      <g id="Group_38" data-name="Group 38">
        <g id="Rectangle_4" data-name="Rectangle 4" fill="none" stroke="#705ebc" stroke-width="2">
          <rect width="40" height="4.226" stroke="none"/>
          <rect x="-1" y="-1" width="42" height="6.226" fill="none"/>
        </g>
      </g>
    </g>
  </g>
</svg>
