<svg xmlns="http://www.w3.org/2000/svg" width="40" height="40" viewBox="0 0 40 40">
  <g id="ic_laundry" transform="translate(29 -3)">
    <g id="XMLID_655_" transform="translate(-29 3)">
      <path id="XMLID_660_" d="M289.79,65.584h3.247a.792.792,0,1,0,0-1.584H289.79a.792.792,0,1,0,0,1.584Z" transform="translate(-266.462 -60.515)" fill="#705ebc"/>
      <path id="XMLID_663_" d="M39.82,41.831a.759.759,0,0,0-.6-.306h-.072c-1.481-3.386-4.209-5.466-7.225-5.466-.12,0-.239,0-.359.011V24.237A4.087,4.087,0,0,0,27.656,20H3.906A4.087,4.087,0,0,0,0,24.237V55.763A4.087,4.087,0,0,0,3.906,60H36.328a.8.8,0,0,0,.768-.692l2.891-16.78A.9.9,0,0,0,39.82,41.831Zm-2.436-.306h-4.1a7.879,7.879,0,0,0-3.423-3.332,5.149,5.149,0,0,1,2.064-.439C34.105,37.754,36.119,39.171,37.383,41.525ZM20,41.525a.758.758,0,0,0-.6.306.9.9,0,0,0-.167.7l.415,2.406a3.216,3.216,0,0,1-3.313-.958,4.76,4.76,0,0,0-3.521-1.582,4.637,4.637,0,0,0-1.923.416,5.222,5.222,0,0,1,4.892-3.828A5.068,5.068,0,0,1,20.1,41.525ZM12.812,44.09a3.266,3.266,0,0,1,2.416,1.086,4.768,4.768,0,0,0,3.511,1.589,4.6,4.6,0,0,0,1.194-.16l.175,1.013a5.088,5.088,0,0,1-4.328,2.552,5.361,5.361,0,0,1-5.144-5.231,3.234,3.234,0,0,1,2.176-.848ZM26.7,39.153a5.886,5.886,0,0,1,4.677,2.373H22.023A5.886,5.886,0,0,1,26.7,39.153ZM3.906,21.695h23.75A2.452,2.452,0,0,1,30,24.237v3.22H1.562v-3.22A2.452,2.452,0,0,1,3.906,21.695ZM1.562,55.763V29.153H30v7.2a7.3,7.3,0,0,0-2.27,1.181,7.131,7.131,0,0,0-3.791.48,9.9,9.9,0,0,0-8.157-4.454,9.418,9.418,0,0,0-4.033.9.876.876,0,0,0-.406,1.114.759.759,0,0,0,1.027.441,7.966,7.966,0,0,1,3.412-.763A8.349,8.349,0,0,1,22.524,38.8a7.8,7.8,0,0,0-1.434,1.312,6.545,6.545,0,0,0-5.309-2.821c-3.7,0-6.719,3.269-6.719,7.288s3.014,7.288,6.719,7.288a6.478,6.478,0,0,0,4.7-2.084l.4,2.3a8.058,8.058,0,0,1-5.1,1.815c-4.739,0-8.594-4.182-8.594-9.322a9.937,9.937,0,0,1,.7-3.7.876.876,0,0,0-.406-1.114.759.759,0,0,0-1.027.441,11.743,11.743,0,0,0-.832,4.374c0,6.075,4.556,11.017,10.156,11.017a9.614,9.614,0,0,0,5.41-1.693l.759,4.405H3.906a2.452,2.452,0,0,1-2.344-2.542Zm34.117,2.542H23.539l-2.6-15.085H38.278Z" transform="translate(0 -20)" fill="#705ebc"/>
    </g>
  </g>
</svg>
