<svg xmlns="http://www.w3.org/2000/svg" width="107.694" height="15.204" viewBox="0 0 107.694 15.204">
    <defs>
        <style>.a{fill:#705ebc;}</style>
    </defs>
    <path class="a" d="M11.587,9.113a.514.514,0,0,1,.092-.013.384.384,0,0,1,.085.013h5.684a.985.985,0,0,1,1,.983.921.921,0,0,1-.3.7.945.945,0,0,1-.708.3H12.682v12a.97.97,0,0,1-.3.715,1.038,1.038,0,0,1-1.423,0,.97.97,0,0,1-.3-.715v-12H5.9a.966.966,0,0,1-.708-.3.941.941,0,0,1-.3-.7.951.951,0,0,1,.3-.7A.98.98,0,0,1,5.9,9.113Z" transform="translate(-4.9 -9.093)"/>
    <path class="a" d="M240.233,19.348h-9.526V23.1a.97.97,0,0,1-.3.715.959.959,0,0,1-.708.282.98.98,0,0,1-.708-.282.97.97,0,0,1-.3-.715V15.846A6.794,6.794,0,0,1,235.473,9.1a6.541,6.541,0,0,1,4.786,1.987,6.453,6.453,0,0,1,1.993,4.76V23.1a.97.97,0,0,1-.3.715,1.038,1.038,0,0,1-1.423,0,.97.97,0,0,1-.3-.715v-3.75Zm-9.526-2h9.533v-1.5a4.791,4.791,0,0,0-4.766-4.753,4.606,4.606,0,0,0-3.363,1.4,4.557,4.557,0,0,0-1.4,3.35Z" transform="translate(-214.027 -9.093)"/>
    <path class="a" d="M492.2,14.894a5.663,5.663,0,0,1,1.731-4.17,5.936,5.936,0,0,1,8.366,0,5.663,5.663,0,0,1,1.731,4.17,5.644,5.644,0,0,1-1.731,4.157,5.743,5.743,0,0,1-4.183,1.724h-3.9V23a.951.951,0,0,1-.3.7A1.006,1.006,0,0,1,492.2,23Zm2.013,3.888h3.9a3.906,3.906,0,0,0,3.9-3.888,3.9,3.9,0,0,0-7.8.007Z" transform="translate(-460.251 -9)"/>
    <path class="a" d="M729.7,10.1a.951.951,0,0,1,.3-.7.966.966,0,0,1,.708-.3.945.945,0,0,1,.708.3.962.962,0,0,1,.295.7v8.831a3.186,3.186,0,0,0,6.373.013V10.1a.951.951,0,0,1,.3-.7,1.006,1.006,0,0,1,1.718.7v8.838a3.02,3.02,0,0,0,.931,2.236,3.19,3.19,0,0,0,5.442-2.249V10.1a.985.985,0,0,1,1-.983.98.98,0,0,1,.708.282.962.962,0,0,1,.3.7v8.831a4.966,4.966,0,0,1-1.521,3.658,5.208,5.208,0,0,1-7.343,0,4.552,4.552,0,0,1-.525-.6,4.126,4.126,0,0,1-.518.6,5.193,5.193,0,0,1-8.864-3.658Z" transform="translate(-682.18 -9.093)"/>
    <path class="a" d="M1361.2,10.1a.951.951,0,0,1,.3-.7.966.966,0,0,1,.708-.3.945.945,0,0,1,.708.3.962.962,0,0,1,.3.7v8.831a3.186,3.186,0,0,0,6.373.013V10.1a.951.951,0,0,1,.3-.7,1.006,1.006,0,0,1,1.718.7v8.838a3.02,3.02,0,0,0,.931,2.236,3.19,3.19,0,0,0,5.442-2.249V10.1a.985.985,0,0,1,1-.983.98.98,0,0,1,.708.282.962.962,0,0,1,.3.7v8.831a4.965,4.965,0,0,1-1.521,3.658,5.208,5.208,0,0,1-7.343,0,4.552,4.552,0,0,1-.525-.6,4.123,4.123,0,0,1-.518.6,5.193,5.193,0,0,1-8.864-3.658Z" transform="translate(-1272.277 -9.093)"/>
    <g transform="translate(69.91 0.007)">
        <path class="a" d="M1079.386,10.516a8.074,8.074,0,0,1,5.94,2.465,8.072,8.072,0,0,1,2.452,5.933,8.058,8.058,0,0,1-1.79,5.193,8.806,8.806,0,0,0,.748-.669,8.1,8.1,0,0,0,2.465-5.94,8.1,8.1,0,0,0-2.452-5.933,8.389,8.389,0,0,0-11.88,0,8.841,8.841,0,0,0-.669.747A8.033,8.033,0,0,1,1079.386,10.516Z" transform="translate(-1074.004 -9.1)"/>
        <path class="a" d="M1075.483,57.147a6.776,6.776,0,0,1,5.33,10.956,7.658,7.658,0,0,0,.6-.538A6.773,6.773,0,1,0,1071.3,58.59,6.46,6.46,0,0,1,1075.483,57.147Z" transform="translate(-1071.294 -52.925)"/>
        <path class="a" d="M1074.275,106.046a4.978,4.978,0,0,1,3.914,8.051c.151-.125.3-.256.446-.4a4.974,4.974,0,1,0-7.035-7.035,5.116,5.116,0,0,0-.4.446A4.751,4.751,0,0,1,1074.275,106.046Z" transform="translate(-1071.2 -98.899)"/>
        <path class="a" d="M1078.707,157.447a2.776,2.776,0,1,0-.82,1.947A2.628,2.628,0,0,0,1078.707,157.447Z" transform="translate(-1073.069 -145.154)"/>
    </g>
</svg>