<svg xmlns="http://www.w3.org/2000/svg" width="230.385" height="32.525"><defs><style>.a{fill:#f6f5f3}</style></defs><path class="a" d="M14.306.042a1.1 1.1 0 01.2-.028.821.821 0 01.182.028h12.16a2.107 2.107 0 012.146 2.1 1.97 1.97 0 01-.631 1.5 2.022 2.022 0 01-1.515.631h-10.2v25.672a2.075 2.075 0 01-.631 1.529 2.221 2.221 0 01-3.044 0 2.075 2.075 0 01-.631-1.529V4.278H2.146a2.066 2.066 0 01-1.515-.631A2.013 2.013 0 010 2.147a2.035 2.035 0 01.631-1.5 2.1 2.1 0 011.515-.6zM56.06 21.936H35.681v8.023a2.075 2.075 0 01-.631 1.529 2.051 2.051 0 01-1.515.6 2.1 2.1 0 01-1.515-.6 2.075 2.075 0 01-.631-1.529V14.446a13.805 13.805 0 014.264-10.183 14.442 14.442 0 0120.463 0 13.805 13.805 0 014.264 10.183v15.513a2.075 2.075 0 01-.631 1.529 2.221 2.221 0 01-3.044 0 2.075 2.075 0 01-.631-1.529v-8.023zm-20.379-4.278h20.393v-3.212a10.248 10.248 0 00-10.2-10.169 9.853 9.853 0 00-7.2 2.987 9.75 9.75 0 00-3 7.167zm32.666-5.049a12.114 12.114 0 013.7-8.92 12.7 12.7 0 0117.9 0 12.114 12.114 0 013.7 8.92 12.074 12.074 0 01-3.7 8.892 12.286 12.286 0 01-8.948 3.689h-8.345v4.769a2.035 2.035 0 01-.631 1.5 2.153 2.153 0 01-3.675-1.5zm4.306 8.317h8.345a8.356 8.356 0 008.345-8.317 8.345 8.345 0 00-16.69.014v8.3zm29.005-18.78a2.035 2.035 0 01.631-1.5 2.066 2.066 0 011.515-.631 2.022 2.022 0 011.515.631 2.057 2.057 0 01.631 1.5v18.892a6.817 6.817 0 0013.633.028V2.146a2.035 2.035 0 01.631-1.5 2.153 2.153 0 013.675 1.5v18.906a6.46 6.46 0 001.992 4.783 6.824 6.824 0 0011.641-4.811V2.146a2.107 2.107 0 012.146-2.1 2.1 2.1 0 011.515.6 2.057 2.057 0 01.631 1.5v18.892a10.622 10.622 0 01-3.254 7.826 11.14 11.14 0 01-15.709 0 9.741 9.741 0 01-1.122-1.276 8.823 8.823 0 01-1.108 1.276 11.108 11.108 0 01-18.963-7.826zm88.571 0a2.035 2.035 0 01.631-1.5 2.066 2.066 0 011.515-.631 2.022 2.022 0 011.515.631 2.057 2.057 0 01.631 1.5v18.892a6.817 6.817 0 0013.633.028V2.146a2.035 2.035 0 01.631-1.5 2.153 2.153 0 013.675 1.5v18.906a6.46 6.46 0 001.992 4.783 6.824 6.824 0 0011.641-4.811V2.146a2.107 2.107 0 012.146-2.1 2.1 2.1 0 011.515.6 2.057 2.057 0 01.631 1.5v18.892a10.622 10.622 0 01-3.254 7.826 11.14 11.14 0 01-15.709 0 9.748 9.748 0 01-1.122-1.276 8.831 8.831 0 01-1.108 1.276 11.108 11.108 0 01-18.963-7.826zm-29.159.898a17.272 17.272 0 0112.706 5.27 17.269 17.269 0 015.246 12.693 17.239 17.239 0 01-3.829 11.108 18.874 18.874 0 001.6-1.431 17.326 17.326 0 005.274-12.707 17.323 17.323 0 00-5.246-12.693 17.946 17.946 0 00-25.414 0 18.844 18.844 0 00-1.431 1.6 17.186 17.186 0 0111.094-3.84z"/><path class="a" d="M158.517 9.046a14.5 14.5 0 0111.4 23.437 16.478 16.478 0 001.29-1.15 14.492 14.492 0 00.014-20.491 14.53 14.53 0 00-21.656 1.29 13.82 13.82 0 018.952-3.086z"/><path class="a" d="M156.133 15.302a10.649 10.649 0 018.373 17.223c.323-.266.645-.547.954-.856a10.642 10.642 0 10-15.05-15.049 10.954 10.954 0 00-.855.954 10.163 10.163 0 016.578-2.272z"/><path class="a" d="M161.616 26.312a5.938 5.938 0 10-1.753 4.166 5.622 5.622 0 001.753-4.166z"/></svg>